<svg id="Layer_2" data-name="Layer 2" xmlns="http://www.w3.org/2000/svg" xmlns:xlink="http://www.w3.org/1999/xlink" viewBox="0 0 328.78 273.18"><defs><style>.cls-1,.cls-10,.cls-12,.cls-17,.cls-3{fill:none;}.cls-2{clip-path:url(#clip-path);}.cls-3,.cls-5,.cls-7{stroke:#000;}.cls-10,.cls-11,.cls-12,.cls-17,.cls-3,.cls-4,.cls-5,.cls-6,.cls-7{stroke-miterlimit:10;}.cls-4,.cls-5{fill:#a8acb8;}.cls-10,.cls-11,.cls-12,.cls-4,.cls-6{stroke:#fff;}.cls-14,.cls-15,.cls-25,.cls-6,.cls-7,.cls-8{fill:#fff;}.cls-11,.cls-9{fill:#00704a;}.cls-12{stroke-width:2px;}.cls-13,.cls-14,.cls-15,.cls-25{isolation:isolate;}.cls-14{font-size:3.56px;}.cls-14,.cls-15,.cls-25{font-family:ArialMT, Arial;}.cls-15{font-size:2.54px;}.cls-16{clip-path:url(#clip-path-5);}.cls-17{stroke:#00704a;}.cls-18{clip-path:url(#clip-path-6);}.cls-19{clip-path:url(#clip-path-7);}.cls-20{clip-path:url(#clip-path-8);}.cls-21{fill:#226e48;}.cls-22{clip-path:url(#clip-path-9);}.cls-23{clip-path:url(#clip-path-10);}.cls-24{clip-path:url(#clip-path-11);}.cls-25{font-size:3.46px;}.cls-26{clip-path:url(#clip-path-12);}</style><clipPath id="clip-path" transform="translate(-9.97 -5.36)"><polygon class="cls-1" points="9.7 5.86 338.43 5.86 338.43 278.04 0 285.48 9.7 5.86"/></clipPath><clipPath id="clip-path-5" transform="translate(-9.97 -5.36)"><rect class="cls-1" x="252.01" y="123.04" width="7.29" height="7.12"/></clipPath><clipPath id="clip-path-6" transform="translate(-9.97 -5.36)"><rect class="cls-1" x="266.81" y="182.18" width="7.29" height="7.12"/></clipPath><clipPath id="clip-path-7" transform="translate(-9.97 -5.36)"><rect class="cls-1" x="74.16" y="117.96" width="6.91" height="7.12"/></clipPath><clipPath id="clip-path-8" transform="translate(-9.97 -5.36)"><rect class="cls-1" x="85.54" y="117.96" width="6.91" height="7.12"/></clipPath><clipPath id="clip-path-9" transform="translate(-9.97 -5.36)"><rect class="cls-1" x="284.42" y="182.18" width="7.29" height="7.12"/></clipPath><clipPath id="clip-path-10" transform="translate(-9.97 -5.36)"><rect class="cls-1" x="240.37" y="8.65" width="7.29" height="7.12"/></clipPath><clipPath id="clip-path-11" transform="translate(-9.97 -5.36)"><rect class="cls-1" x="39.49" y="84.28" width="6.91" height="7.12"/></clipPath><clipPath id="clip-path-12" transform="translate(-9.97 -5.36)"><rect class="cls-1" x="269.71" y="167.27" width="7.29" height="7.12"/></clipPath></defs><title>floor1_buildingH_2</title><g class="cls-2"><path class="cls-3" d="M31.42,145.77V117.18l-13.16,0L10.6,100,45.72,76.77,44.51,73.6l6.3-3.81V68.13H71.88V62.8h32.35V45.59c29.29-10.82,56.8-20.33,99.12-26.84q11.86-1.82,23.42-3.24h0V5.86h35.13v5.59h9.63v8.64h29.77v5.85H329v108.8H301.31v41.35H329v38.85h1.5l4.41-3.79h2.54l-38.51,33.41h0l1.91,2.06-13.68,12-2-2.13L260.3,278h-3.05l3.05-2.64h-38v-1.65h-17v1.65H180.9v-1.65h-8.64v1.65H157.63v-1.65h-8.2v1.65H126.52v-1.65h-8.36v1.65H95v-1.65H86.88v1.65H71.53v-1.65H63.41v1.65H40.1v-4.6h0l-.44-87.17h22V145.75H71.88v27.88H92.37v10H193.72v-7.54h57.13V145.74Z" transform="translate(-9.97 -5.36)"/><path class="cls-3" d="M287.12,258.61l-8.52-9.2,13.68-12,8.52,9.2Z" transform="translate(-9.97 -5.36)"/><path class="cls-4" d="M261.9,176.08H250.84" transform="translate(-9.97 -5.36)"/><path class="cls-5" d="M261,168.61V142.7" transform="translate(-9.97 -5.36)"/><path class="cls-4" d="M76.86,84.4v16.78" transform="translate(-9.97 -5.36)"/><path class="cls-4" d="M63.85,110.67h8" transform="translate(-9.97 -5.36)"/><path class="cls-4" d="M80.89,183.63h7.59" transform="translate(-9.97 -5.36)"/><path class="cls-4" d="M250.85,208.71h11.06" transform="translate(-9.97 -5.36)"/><path class="cls-4" d="M261.9,46.27V50.6" transform="translate(-9.97 -5.36)"/><path class="cls-3" d="M20.84,94l7.67,17.24h2.92v5.91l-13.16,0-7-16.91Z" transform="translate(-9.97 -5.36)"/></g><path class="cls-6" d="M127.82,142.7h11v3.05h-11Z" transform="translate(-9.97 -5.36)"/><path class="cls-6" d="M76.86,92.37h-5V94h5Z" transform="translate(-9.97 -5.36)"/><path class="cls-6" d="M76.86,84.4h-5V86h5Z" transform="translate(-9.97 -5.36)"/><path class="cls-6" d="M71.88,105.6H70.73v5.06h1.15Z" transform="translate(-9.97 -5.36)"/><path class="cls-6" d="M31.42,105.62h2.8v9.29h-2.8Z" transform="translate(-9.97 -5.36)"/><path class="cls-6" d="M160.06,101.18h-1.54v3.22h1.54Z" transform="translate(-9.97 -5.36)"/><path class="cls-6" d="M260,32.17h2V29.75h-2Z" transform="translate(-9.97 -5.36)"/><path class="cls-6" d="M265.34,213.76H262.8v2.35h2.54Z" transform="translate(-9.97 -5.36)"/><path class="cls-6" d="M80,213H78.08v3.15H80Z" transform="translate(-9.97 -5.36)"/><path class="cls-7" d="M63.43,275.4H40.12v-4.6H63.43Z" transform="translate(-9.97 -5.36)"/><path class="cls-7" d="M86.88,273.75H71.53v1.65H86.88Z" transform="translate(-9.97 -5.36)"/><path class="cls-7" d="M118.16,273.75H95v1.65h23.15Z" transform="translate(-9.97 -5.36)"/><path class="cls-7" d="M126.52,273.75h22.91v1.65H126.52Z" transform="translate(-9.97 -5.36)"/><path class="cls-7" d="M172.26,275.4H157.63v-1.65h14.63Z" transform="translate(-9.97 -5.36)"/><path class="cls-7" d="M205.22,275.4H180.9v-1.65h24.32Z" transform="translate(-9.97 -5.36)"/><g class="cls-2"><path class="cls-3" d="M268.65,270.79H222.25v4.6h38L257.25,278h3.05l3-2.64Z" transform="translate(-9.97 -5.36)"/></g><path class="cls-6" d="M296.36,214.94h2.22v-1.18h-2.22Z" transform="translate(-9.97 -5.36)"/><path class="cls-3" d="M298.89,244.55l24.73-21.45" transform="translate(-9.97 -5.36)"/><g class="cls-2"><path class="cls-7" d="M226.77,15.51h0q-11.55,1.41-23.42,3.24c-42.32,6.51-69.83,16-99.12,26.84v4h55.83V29.75h66.71V15.51" transform="translate(-9.97 -5.36)"/><path class="cls-8" d="M334.86,211.14h2.54L333,214.94h-2.57Z" transform="translate(-9.97 -5.36)"/><path class="cls-3" d="M334.86,211.14h2.54L333,214.94h-2.57Z" transform="translate(-9.97 -5.36)"/></g><path class="cls-9" d="M62.25,110.67V118H56.86V105.6h7v5.06Z" transform="translate(-9.97 -5.36)"/><path class="cls-10" d="M62.25,110.67V118H56.86V105.6h7v5.06Z" transform="translate(-9.97 -5.36)"/><path class="cls-9" d="M56.86,124.23v-9.32H31.42v30.87H62.25V124.23Z" transform="translate(-9.97 -5.36)"/><path class="cls-10" d="M56.86,124.23v-9.32H31.42v30.87H62.25V124.23Z" transform="translate(-9.97 -5.36)"/><path class="cls-9" d="M76.86,109.23v-8h-5v34.57H83.36V109.23Z" transform="translate(-9.97 -5.36)"/><path class="cls-10" d="M76.86,109.23v-8h-5v34.57H83.36V109.23Z" transform="translate(-9.97 -5.36)"/><path class="cls-9" d="M83.36,135.75H94.63V101.18H89.2v8H83.36Z" transform="translate(-9.97 -5.36)"/><path class="cls-10" d="M83.36,135.75H94.63V101.18H89.2v8H83.36Z" transform="translate(-9.97 -5.36)"/><path class="cls-11" d="M94.64,135.75H71.88v10H94.64Z" transform="translate(-9.97 -5.36)"/><path class="cls-9" d="M121.47,104.4v-3.22H100.89v3.22H94.63v41.35h33.19V104.4Z" transform="translate(-9.97 -5.36)"/><path class="cls-10" d="M121.47,104.4v-3.22H100.89v3.22H94.63v41.35h33.19V104.4Z" transform="translate(-9.97 -5.36)"/><path class="cls-9" d="M162,104.4v-3.22H134v3.22h-6.15v32.28h7v6h4v3.05h21.23V104.4Z" transform="translate(-9.97 -5.36)"/><path class="cls-10" d="M162,104.4v-3.22H134v3.22h-6.15v32.28h7v6h4v3.05h21.23V104.4Z" transform="translate(-9.97 -5.36)"/><path class="cls-11" d="M104.23,62.8H71.88V84.4h32.35Z" transform="translate(-9.97 -5.36)"/><path class="cls-9" d="M137.27,49.58h-33V92.37h27.28V88.64h5.76Z" transform="translate(-9.97 -5.36)"/><path class="cls-10" d="M137.27,49.58h-33V92.37h27.28V88.64h5.76Z" transform="translate(-9.97 -5.36)"/><path class="cls-9" d="M160.06,92.37H143.13V88.64h-5.86V49.58h22.79Z" transform="translate(-9.97 -5.36)"/><path class="cls-10" d="M160.06,92.37H143.13V88.64h-5.86V49.58h22.79Z" transform="translate(-9.97 -5.36)"/><path class="cls-11" d="M171.51,78.81H160.06V92.37h11.45Z" transform="translate(-9.97 -5.36)"/><path class="cls-11" d="M181.66,91.78H171.51v-13h10.15Z" transform="translate(-9.97 -5.36)"/><path class="cls-11" d="M193.72,78.81H181.66v13h12.06Z" transform="translate(-9.97 -5.36)"/><path class="cls-9" d="M193.72,29.75H160.06V69.32h6.07v3.73h25.16V66.1h2.43Z" transform="translate(-9.97 -5.36)"/><path class="cls-10" d="M193.72,29.75H160.06V69.32h6.07v3.73h25.16V66.1h2.43Z" transform="translate(-9.97 -5.36)"/><path class="cls-9" d="M249.41,29.75h-55.7V60h9.37v2.8h46.33Z" transform="translate(-9.97 -5.36)"/><path class="cls-10" d="M249.41,29.75h-55.7V60h9.37v2.8h46.33Z" transform="translate(-9.97 -5.36)"/><path class="cls-11" d="M226.77,20.09h22.64v9.66H226.77Z" transform="translate(-9.97 -5.36)"/><path class="cls-9" d="M226.77,20.09H261.9V5.86H226.77Z" transform="translate(-9.97 -5.36)"/><g class="cls-2"><path class="cls-10" d="M261.9,5.86H226.77V20.09H261.9Z" transform="translate(-9.97 -5.36)"/></g><path class="cls-11" d="M249.41,29.75H261.9V20.09H249.41Z" transform="translate(-9.97 -5.36)"/><path class="cls-11" d="M261.9,62.8H249.41V50.6H261.9Z" transform="translate(-9.97 -5.36)"/><path class="cls-9" d="M258.45,68.14l0-5.34H232.17V73.05h29.74V68.14Z" transform="translate(-9.97 -5.36)"/><path class="cls-10" d="M258.45,68.14l0-5.34H232.17V73.05h29.74V68.14Z" transform="translate(-9.97 -5.36)"/><path class="cls-9" d="M232.17,92.37H261.9V91.14h-3.47V83.51h3.47V73H232.17Z" transform="translate(-9.97 -5.36)"/><path class="cls-10" d="M232.17,92.37H261.9V91.14h-3.47V83.51h3.47V73H232.17Z" transform="translate(-9.97 -5.36)"/><path class="cls-11" d="M232.17,62.8H203.09V92.37h29.08Z" transform="translate(-9.97 -5.36)"/><path class="cls-9" d="M273.62,47.63v5.8H329V25.94H273.62v6.23h-2.73V47.63Z" transform="translate(-9.97 -5.36)"/><path class="cls-10" d="M273.62,47.63v5.8H329V25.94H273.62v6.23h-2.73V47.63Z" transform="translate(-9.97 -5.36)"/><path class="cls-11" d="M289.06,20.09H270.88v5.85h18.17Z" transform="translate(-9.97 -5.36)"/><path class="cls-11" d="M301.31,25.94H289.06V20.09h12.25Z" transform="translate(-9.97 -5.36)"/><path class="cls-9" d="M273.62,59.07V53.44H329v27H273.62V74.66h-2.73V59.07Z" transform="translate(-9.97 -5.36)"/><path class="cls-10" d="M273.62,59.07V53.44H329v27H273.62V74.66h-2.73V59.07Z" transform="translate(-9.97 -5.36)"/><path class="cls-9" d="M273.62,86V80.42H329v26.95H273.62v-6.19h-2.73V86Z" transform="translate(-9.97 -5.36)"/><path class="cls-10" d="M273.62,86V80.42H329v26.95H273.62v-6.19h-2.73V86Z" transform="translate(-9.97 -5.36)"/><path class="cls-9" d="M273.62,113.38v-6H329v27.37H273.62V128.3h-2.73V113.38Z" transform="translate(-9.97 -5.36)"/><path class="cls-10" d="M273.62,113.38v-6H329v27.37H273.62V128.3h-2.73V113.38Z" transform="translate(-9.97 -5.36)"/><path class="cls-11" d="M301.31,134.74H270.88v8.39h30.42Z" transform="translate(-9.97 -5.36)"/><path class="cls-11" d="M301.31,154H270.88V143.13h30.42Z" transform="translate(-9.97 -5.36)"/><path class="cls-11" d="M301.31,154h-8.65v11.4h8.65Z" transform="translate(-9.97 -5.36)"/><path class="cls-11" d="M281.12,165.41h11.54V154H281.12Z" transform="translate(-9.97 -5.36)"/><path class="cls-11" d="M270.89,154h10.24v11.4H270.89Z" transform="translate(-9.97 -5.36)"/><path class="cls-11" d="M261,165.41h9.89v-6.35H261Z" transform="translate(-9.97 -5.36)"/><path class="cls-11" d="M279.48,176.08H267.07V165.41h12.41Z" transform="translate(-9.97 -5.36)"/><path class="cls-11" d="M301.31,165.41H279.47v10.67h21.84Z" transform="translate(-9.97 -5.36)"/><path class="cls-11" d="M261,120.33H250.85v13H261Z" transform="translate(-9.97 -5.36)"/><path class="cls-11" d="M250.85,111.69H261v8.64H250.85Z" transform="translate(-9.97 -5.36)"/><path class="cls-9" d="M250.85,111.69v10.51H239v-21h22v10.51Z" transform="translate(-9.97 -5.36)"/><path class="cls-10" d="M250.85,111.69v10.51H239v-21h22v10.51Z" transform="translate(-9.97 -5.36)"/><path class="cls-11" d="M239,134.23h11.84v11.52H239Z" transform="translate(-9.97 -5.36)"/><path class="cls-11" d="M250.85,122.19H239v12h11.84Z" transform="translate(-9.97 -5.36)"/><path class="cls-11" d="M233.1,133.38H221.83v12.37H233.1Z" transform="translate(-9.97 -5.36)"/><path class="cls-11" d="M210.55,145.75h11.28V133.38H210.55Z" transform="translate(-9.97 -5.36)"/><path class="cls-11" d="M210.55,133.38h-11.1v12.37h11.1Z" transform="translate(-9.97 -5.36)"/><path class="cls-11" d="M188.17,145.67h11.28V133.38H188.17Z" transform="translate(-9.97 -5.36)"/><path class="cls-11" d="M177.15,133.38h11v12.29h-11Z" transform="translate(-9.97 -5.36)"/><path class="cls-11" d="M160.06,145.75h17.09V133.38H160.06Z" transform="translate(-9.97 -5.36)"/><path class="cls-11" d="M171.51,123.38H160.06v10h11.45Z" transform="translate(-9.97 -5.36)"/><path class="cls-11" d="M160.06,113.38h11.45v10H160.06Z" transform="translate(-9.97 -5.36)"/><path class="cls-11" d="M171.51,101.18H160.06v12.2h11.45Z" transform="translate(-9.97 -5.36)"/><path class="cls-11" d="M188.17,113.38h-11v-12.2h11Z" transform="translate(-9.97 -5.36)"/><path class="cls-11" d="M199.44,101.18H188.16v12.2h11.28Z" transform="translate(-9.97 -5.36)"/><path class="cls-11" d="M210.55,113.38h-11.1v-12.2h11.1Z" transform="translate(-9.97 -5.36)"/><path class="cls-11" d="M221.82,101.18H210.55v12.2h11.28Z" transform="translate(-9.97 -5.36)"/><path class="cls-11" d="M233.1,113.38H221.83v-12.2H233.1Z" transform="translate(-9.97 -5.36)"/><path class="cls-9" d="M171.51,104.4h5.64v9h56v-9H239v41.35h-5.9V133.38H171.51Z" transform="translate(-9.97 -5.36)"/><path class="cls-10" d="M171.51,104.4h5.64v9h56v-9H239v41.35h-5.9V133.38H171.51Z" transform="translate(-9.97 -5.36)"/><path class="cls-9" d="M268.29,194.09h11.19v5H261.91v-23h17.57v18Z" transform="translate(-9.97 -5.36)"/><path class="cls-10" d="M268.29,194.09h11.19v5H261.91v-23h17.57v18Z" transform="translate(-9.97 -5.36)"/><path class="cls-9" d="M288.45,194.09h-9v-18h15.88v23H279.47v-5Z" transform="translate(-9.97 -5.36)"/><path class="cls-10" d="M288.45,194.09h-9v-18h15.88v23H279.47v-5Z" transform="translate(-9.97 -5.36)"/><path class="cls-11" d="M261.9,208.71h10.87V199H261.9Z" transform="translate(-9.97 -5.36)"/><path class="cls-11" d="M295.35,199H286.5v9.66h8.85Z" transform="translate(-9.97 -5.36)"/><path class="cls-9" d="M329,176.08h-33.6v32.62h3.23v6.23H329Z" transform="translate(-9.97 -5.36)"/><path class="cls-10" d="M329,176.08h-33.6v32.62h3.23v6.23H329Z" transform="translate(-9.97 -5.36)"/><path class="cls-11" d="M209.59,176.08h41.25v32.62H209.59Z" transform="translate(-9.97 -5.36)"/><path class="cls-11" d="M193.72,194.73h15.88V176.09H193.72Z" transform="translate(-9.97 -5.36)"/><path class="cls-11" d="M209.59,208.71H193.72v-14h15.88Z" transform="translate(-9.97 -5.36)"/><path class="cls-11" d="M179.21,196.13h14.51v12.58H179.21Z" transform="translate(-9.97 -5.36)"/><path class="cls-11" d="M193.72,183.63H179.21v12.5h14.51Z" transform="translate(-9.97 -5.36)"/><path class="cls-11" d="M172.77,189.9h6.44v-6.27h-6.44Z" transform="translate(-9.97 -5.36)"/><path class="cls-11" d="M158.52,196.13h14.25v-12.5H158.52Z" transform="translate(-9.97 -5.36)"/><path class="cls-11" d="M172.77,208.71H158.52V196.13h14.25Z" transform="translate(-9.97 -5.36)"/><path class="cls-11" d="M143.13,183.63h15.39v25.08H143.13Z" transform="translate(-9.97 -5.36)"/><path class="cls-11" d="M143.13,183.63H130.64v25.08h12.49Z" transform="translate(-9.97 -5.36)"/><path class="cls-11" d="M130.65,183.63H100.4v25.08h30.25Z" transform="translate(-9.97 -5.36)"/><path class="cls-11" d="M88.48,196.95H100.4V183.63H88.48Z" transform="translate(-9.97 -5.36)"/><path class="cls-11" d="M100.39,208.71H88.48V197h11.91Z" transform="translate(-9.97 -5.36)"/><path class="cls-11" d="M69.35,199.81H80.89v8.9H69.35Z" transform="translate(-9.97 -5.36)"/><path class="cls-11" d="M80.89,183.63H69.34v16.18H80.89Z" transform="translate(-9.97 -5.36)"/><path class="cls-11" d="M39.65,195.55H69.35V183.63H39.65Z" transform="translate(-9.97 -5.36)"/><path class="cls-11" d="M69.35,208.71H39.65V195.55H69.35Z" transform="translate(-9.97 -5.36)"/><path class="cls-11" d="M56.5,216.11h17v19.42h-17Z" transform="translate(-9.97 -5.36)"/><path class="cls-9" d="M102.08,255.76v3H73.5V216.11h35.09v39.65Z" transform="translate(-9.97 -5.36)"/><path class="cls-10" d="M102.08,255.76v3H73.5V216.11h35.09v39.65Z" transform="translate(-9.97 -5.36)"/><path class="cls-9" d="M130.18,216.11H108.59v42.62h15v-3h6.57Z" transform="translate(-9.97 -5.36)"/><path class="cls-10" d="M130.18,216.11H108.59v42.62h15v-3h6.57Z" transform="translate(-9.97 -5.36)"/><path class="cls-11" d="M151.82,237.33H130.17v21.4h21.64Z" transform="translate(-9.97 -5.36)"/><path class="cls-11" d="M130.18,226.75h21.64v10.58H130.18Z" transform="translate(-9.97 -5.36)"/><path class="cls-11" d="M151.82,216.11H130.17v10.64h21.64Z" transform="translate(-9.97 -5.36)"/><path class="cls-9" d="M158.33,255.76v3H179V216.11H151.82v39.65Z" transform="translate(-9.97 -5.36)"/><path class="cls-10" d="M158.33,255.76v3H179V216.11H151.82v39.65Z" transform="translate(-9.97 -5.36)"/><path class="cls-11" d="M191.67,216.11H179v42.62h12.69Z" transform="translate(-9.97 -5.36)"/><path class="cls-9" d="M191.67,258.73h25.06v-3h11.57V216.11H191.67Z" transform="translate(-9.97 -5.36)"/><path class="cls-10" d="M191.67,258.73h25.06v-3h11.57V216.11H191.67Z" transform="translate(-9.97 -5.36)"/><path class="cls-9" d="M237.7,255.76v3h26V242.9h1.65V216.11h-37v39.65Z" transform="translate(-9.97 -5.36)"/><path class="cls-10" d="M237.7,255.76v3h26V242.9h1.65V216.11h-37v39.65Z" transform="translate(-9.97 -5.36)"/><path class="cls-10" d="M92.37,216.11H244.18v-7.41h-65V189.89h-6.44v18.81H92.38Z" transform="translate(-9.97 -5.36)"/><path class="cls-11" d="M127.82,136.68h7v6h-7Z" transform="translate(-9.97 -5.36)"/><path class="cls-12" d="M271.53,12.63v6.52" transform="translate(-9.97 -5.36)"/><path class="cls-12" d="M261.9,12.63v6.52" transform="translate(-9.97 -5.36)"/><path class="cls-12" d="M270.89,21.91v3.35" transform="translate(-9.97 -5.36)"/><path class="cls-12" d="M273.62,28.08v3.35" transform="translate(-9.97 -5.36)"/><path class="cls-12" d="M261.9,25.54v3.35" transform="translate(-9.97 -5.36)"/><path class="cls-12" d="M249.41,30.49v3.35" transform="translate(-9.97 -5.36)"/><path class="cls-12" d="M261.9,51.34v3.35" transform="translate(-9.97 -5.36)"/><path class="cls-12" d="M273.62,48.44v3.35" transform="translate(-9.97 -5.36)"/><path class="cls-12" d="M273.62,55v3.35" transform="translate(-9.97 -5.36)"/><path class="cls-12" d="M273.62,75.91v3.35" transform="translate(-9.97 -5.36)"/><path class="cls-12" d="M273.62,82v3.35" transform="translate(-9.97 -5.36)"/><path class="cls-12" d="M273.62,102.56v3.35" transform="translate(-9.97 -5.36)"/><path class="cls-12" d="M273.62,108.81v3.35" transform="translate(-9.97 -5.36)"/><path class="cls-12" d="M273.62,130.41v3.35" transform="translate(-9.97 -5.36)"/><path class="cls-12" d="M287.67,154h-3.43" transform="translate(-9.97 -5.36)"/><path class="cls-12" d="M277.72,154h-3.43" transform="translate(-9.97 -5.36)"/><path class="cls-12" d="M267.07,159.06h-3.43" transform="translate(-9.97 -5.36)"/><path class="cls-12" d="M278.44,199H275" transform="translate(-9.97 -5.36)"/><path class="cls-12" d="M249,208.71H245.6" transform="translate(-9.97 -5.36)"/><path class="cls-12" d="M236.08,216.11h-3.35" transform="translate(-9.97 -5.36)"/><path class="cls-12" d="M236.68,255.76h-3.35" transform="translate(-9.97 -5.36)"/><path class="cls-12" d="M221.09,255.76h-3.35" transform="translate(-9.97 -5.36)"/><path class="cls-12" d="M204.25,216.11H200.9" transform="translate(-9.97 -5.36)"/><path class="cls-12" d="M205.48,208.71H202" transform="translate(-9.97 -5.36)"/><path class="cls-12" d="M213.93,208.71h-3.43" transform="translate(-9.97 -5.36)"/><path class="cls-12" d="M186,216.11h-3.35" transform="translate(-9.97 -5.36)"/><path class="cls-12" d="M178.15,189.88h-3.43" transform="translate(-9.97 -5.36)"/><path class="cls-12" d="M172.15,216.11h-3.35" transform="translate(-9.97 -5.36)"/><path class="cls-12" d="M156,255.76h-3.17" transform="translate(-9.97 -5.36)"/><path class="cls-12" d="M159.8,208.71h-3.25" transform="translate(-9.97 -5.36)"/><path class="cls-12" d="M134.62,208.71h-3.25" transform="translate(-9.97 -5.36)"/><path class="cls-12" d="M118.73,208.71h-3.25" transform="translate(-9.97 -5.36)"/><path class="cls-12" d="M127.78,216.11h-3.17" transform="translate(-9.97 -5.36)"/><path class="cls-12" d="M127.78,255.76h-3.17" transform="translate(-9.97 -5.36)"/><path class="cls-12" d="M107.36,216.11h-3.17" transform="translate(-9.97 -5.36)"/><path class="cls-12" d="M64.44,216.11H61.26" transform="translate(-9.97 -5.36)"/><path class="cls-12" d="M76.74,208.71H73.49" transform="translate(-9.97 -5.36)"/><path class="cls-12" d="M76.74,199.81H73.49" transform="translate(-9.97 -5.36)"/><path class="cls-12" d="M164.29,69.32h-3.43" transform="translate(-9.97 -5.36)"/><path class="cls-12" d="M199.29,60h-3.43" transform="translate(-9.97 -5.36)"/><path class="cls-12" d="M170,78.81h-3.43" transform="translate(-9.97 -5.36)"/><path class="cls-12" d="M176.09,78.81h-3.43" transform="translate(-9.97 -5.36)"/><path class="cls-12" d="M187,78.81h-3.43" transform="translate(-9.97 -5.36)"/><path class="cls-12" d="M166.77,104.4h-3.25" transform="translate(-9.97 -5.36)"/><path class="cls-12" d="M176.18,104.4h-3.43" transform="translate(-9.97 -5.36)"/><path class="cls-12" d="M100.39,84.28H97.14" transform="translate(-9.97 -5.36)"/><path class="cls-12" d="M82.7,84.28H79.45" transform="translate(-9.97 -5.36)"/><path class="cls-12" d="M136.34,88.64h-3.25" transform="translate(-9.97 -5.36)"/><path class="cls-12" d="M141.52,88.64h-3.25" transform="translate(-9.97 -5.36)"/><path class="cls-12" d="M99.06,104.4H95.8" transform="translate(-9.97 -5.36)"/><path class="cls-12" d="M131.84,104.4h-3.25" transform="translate(-9.97 -5.36)"/><path class="cls-12" d="M126.83,104.4h-3.25" transform="translate(-9.97 -5.36)"/><path class="cls-12" d="M133.87,136.68h-3.25" transform="translate(-9.97 -5.36)"/><path class="cls-12" d="M65.06,195.55H61.8" transform="translate(-9.97 -5.36)"/><path class="cls-12" d="M107.36,255.76h-3.17" transform="translate(-9.97 -5.36)"/><path class="cls-12" d="M259.5,176.08h-7.07" transform="translate(-9.97 -5.36)"/><path class="cls-12" d="M259.5,208.71h-7.07" transform="translate(-9.97 -5.36)"/><path class="cls-12" d="M283.94,199h-3.43" transform="translate(-9.97 -5.36)"/><path class="cls-12" d="M237.6,145.67h-3.43" transform="translate(-9.97 -5.36)"/><path class="cls-12" d="M226.28,133.38h-3.43" transform="translate(-9.97 -5.36)"/><path class="cls-12" d="M220.78,133.38h-3.43" transform="translate(-9.97 -5.36)"/><path class="cls-12" d="M203.91,133.38h-3.43" transform="translate(-9.97 -5.36)"/><path class="cls-12" d="M198.4,133.38H195" transform="translate(-9.97 -5.36)"/><path class="cls-12" d="M181.57,133.38h-3.43" transform="translate(-9.97 -5.36)"/><path class="cls-12" d="M226.28,113.38h-3.43" transform="translate(-9.97 -5.36)"/><path class="cls-12" d="M220.78,113.38h-3.43" transform="translate(-9.97 -5.36)"/><path class="cls-12" d="M203.91,113.38h-3.43" transform="translate(-9.97 -5.36)"/><path class="cls-12" d="M198.4,113.38H195" transform="translate(-9.97 -5.36)"/><path class="cls-12" d="M181.57,113.38h-3.43" transform="translate(-9.97 -5.36)"/><path class="cls-12" d="M176.11,133.38h-3.43" transform="translate(-9.97 -5.36)"/><path class="cls-12" d="M270.89,137.26v3.35" transform="translate(-9.97 -5.36)"/><path class="cls-12" d="M267.07,172.08v3.35" transform="translate(-9.97 -5.36)"/><path class="cls-12" d="M250.85,172.08v3.35" transform="translate(-9.97 -5.36)"/><path class="cls-12" d="M272.77,204.46v3.35" transform="translate(-9.97 -5.36)"/><path class="cls-12" d="M209.59,189.25v3.35" transform="translate(-9.97 -5.36)"/><path class="cls-12" d="M179,224.85v3.26" transform="translate(-9.97 -5.36)"/><path class="cls-12" d="M130.18,218.49v3.26" transform="translate(-9.97 -5.36)"/><path class="cls-12" d="M69.35,188.07v3.35" transform="translate(-9.97 -5.36)"/><path class="cls-12" d="M56.86,119v3.35" transform="translate(-9.97 -5.36)"/><path class="cls-12" d="M94.64,141.28v3.35" transform="translate(-9.97 -5.36)"/><path class="cls-12" d="M89.2,104.86v3.35" transform="translate(-9.97 -5.36)"/><path class="cls-12" d="M104.23,85.22v3.35" transform="translate(-9.97 -5.36)"/><path class="cls-12" d="M160.06,74.6v3.35" transform="translate(-9.97 -5.36)"/><path class="cls-12" d="M191.29,69.07v3.35" transform="translate(-9.97 -5.36)"/><path class="cls-12" d="M203.09,82.07v7.29" transform="translate(-9.97 -5.36)"/><path class="cls-12" d="M76.86,104.86v3.35" transform="translate(-9.97 -5.36)"/><path class="cls-12" d="M61.63,175.22v7.09" transform="translate(-9.97 -5.36)"/><path class="cls-12" d="M62.25,111.54v5.35" transform="translate(-9.97 -5.36)"/><path class="cls-12" d="M76.86,95v5.35" transform="translate(-9.97 -5.36)"/><path class="cls-12" d="M76.86,86.88v4.65" transform="translate(-9.97 -5.36)"/><path class="cls-12" d="M92.37,175.22v7.09" transform="translate(-9.97 -5.36)"/><path class="cls-12" d="M52.89,208.71H46" transform="translate(-9.97 -5.36)"/><path class="cls-12" d="M70.69,145.67H63.81" transform="translate(-9.97 -5.36)"/><path class="cls-12" d="M70,110.67H64.46" transform="translate(-9.97 -5.36)"/><path class="cls-12" d="M70.63,273.75H64.22" transform="translate(-9.97 -5.36)"/><path class="cls-12" d="M87.87,183.63H81.55" transform="translate(-9.97 -5.36)"/><path class="cls-12" d="M88.48,200.45v7.09" transform="translate(-9.97 -5.36)"/><path class="cls-12" d="M130.18,230.81v3.26" transform="translate(-9.97 -5.36)"/><path class="cls-12" d="M151.82,251.29v3.26" transform="translate(-9.97 -5.36)"/><path class="cls-12" d="M179.21,204.34v3.35" transform="translate(-9.97 -5.36)"/><path class="cls-12" d="M172.77,204.34v3.35" transform="translate(-9.97 -5.36)"/><path class="cls-12" d="M179.21,191.89v3.35" transform="translate(-9.97 -5.36)"/><path class="cls-12" d="M172.77,191.89v3.35" transform="translate(-9.97 -5.36)"/><path class="cls-12" d="M179,232.45v3.26" transform="translate(-9.97 -5.36)"/><path class="cls-12" d="M244.11,211.71v1.19" transform="translate(-9.97 -5.36)"/><path class="cls-12" d="M286.5,199.76v3.35" transform="translate(-9.97 -5.36)"/><path class="cls-12" d="M329,212.81v-2.25" transform="translate(-9.97 -5.36)"/><path class="cls-12" d="M298.58,211.71v1.19" transform="translate(-9.97 -5.36)"/><path class="cls-12" d="M239,135.08v3.35" transform="translate(-9.97 -5.36)"/><path class="cls-12" d="M239,129.76v3.35" transform="translate(-9.97 -5.36)"/><path class="cls-12" d="M171.51,124.17v3.35" transform="translate(-9.97 -5.36)"/><path class="cls-12" d="M171.51,119.18v3.35" transform="translate(-9.97 -5.36)"/><path class="cls-12" d="M171.51,109.21v3.35" transform="translate(-9.97 -5.36)"/><path class="cls-12" d="M301.31,158.11v3.35" transform="translate(-9.97 -5.36)"/><path class="cls-12" d="M301.31,170.41v3.35" transform="translate(-9.97 -5.36)"/><path class="cls-12" d="M270.89,144v7.07" transform="translate(-9.97 -5.36)"/><path class="cls-12" d="M301.31,144v7.07" transform="translate(-9.97 -5.36)"/><path class="cls-12" d="M261,116.43v3.35" transform="translate(-9.97 -5.36)"/><path class="cls-12" d="M258.44,84.1v6.4" transform="translate(-9.97 -5.36)"/><path class="cls-12" d="M258.44,63.81v3.35" transform="translate(-9.97 -5.36)"/><path class="cls-12" d="M245.56,29.75h-3.43" transform="translate(-9.97 -5.36)"/><path class="cls-12" d="M236.1,73h-3.43" transform="translate(-9.97 -5.36)"/><path class="cls-12" d="M296.33,25.94H292.9" transform="translate(-9.97 -5.36)"/><path class="cls-12" d="M300.86,53.43h-4.32" transform="translate(-9.97 -5.36)"/><path class="cls-12" d="M300.86,107.28h-4.32" transform="translate(-9.97 -5.36)"/><path class="cls-12" d="M259.35,101.18h-3.43" transform="translate(-9.97 -5.36)"/><path class="cls-12" d="M237.81,104.4h-3.43" transform="translate(-9.97 -5.36)"/><path class="cls-12" d="M296.65,250.26,291.28,255" transform="translate(-9.97 -5.36)"/><path class="cls-12" d="M282.76,245.76l5.36-4.71" transform="translate(-9.97 -5.36)"/><path class="cls-12" d="M22.92,98.71l3.63,8.17" transform="translate(-9.97 -5.36)"/><path class="cls-12" d="M12.91,98.62l6.15-3.56" transform="translate(-9.97 -5.36)"/><path class="cls-12" d="M15.85,111.78l-3.28-7.38" transform="translate(-9.97 -5.36)"/><g class="cls-13"><text class="cls-14" transform="translate(31.91 126.08) scale(0.97 1)">1</text><text class="cls-14" transform="translate(33.83 126.08) scale(0.97 1)">2</text><text class="cls-14" transform="translate(35.75 126.08) scale(0.97 1)">0</text><text class="cls-14" transform="translate(37.68 126.08) scale(0.97 1)">4</text></g><g class="cls-13"><text class="cls-15" transform="translate(47.71 103.45) scale(0.97 1)">1</text><text class="cls-15" transform="translate(49.09 103.45) scale(0.97 1)">2</text><text class="cls-15" transform="translate(50.46 103.45) scale(0.97 1)">0</text><text class="cls-15" transform="translate(51.83 103.45) scale(0.97 1)">3</text></g><g class="cls-13"><text class="cls-14" transform="translate(107.46 65.62) scale(0.97 1)">1</text><text class="cls-14" transform="translate(109.39 65.62) scale(0.97 1)">2</text><text class="cls-14" transform="translate(111.31 65.62) scale(0.97 1)">1</text><text class="cls-14" transform="translate(112.97 65.62) scale(0.97 1)">1</text><text class="cls-14" transform="translate(140.06 65.62) scale(0.97 1)">1</text><text class="cls-14" transform="translate(141.98 65.62) scale(0.97 1)">2</text><text class="cls-14" transform="translate(143.9 65.62) scale(0.97 1)">1</text><text class="cls-14" transform="translate(145.82 65.62) scale(0.97 1)">2</text><text class="cls-14" transform="translate(163.45 44.22) scale(1.02 1)">1</text><text class="cls-14" transform="translate(165.48 44.22) scale(1.02 1)">2</text><text class="cls-14" transform="translate(167.5 44.22) scale(1.02 1)">1</text><text class="cls-14" transform="translate(169.53 44.22) scale(1.02 1)">7</text><text class="cls-14" transform="translate(207.66 40.92) scale(1.02 1)">1</text><text class="cls-14" transform="translate(209.69 40.92) scale(1.02 1)">2</text><text class="cls-14" transform="translate(211.71 40.92) scale(1.02 1)">1</text><text class="cls-14" transform="translate(213.74 40.92) scale(1.02 1)">8</text><text class="cls-14" transform="translate(222.53 20.07) scale(1.02 1)">1</text><text class="cls-14" transform="translate(224.56 20.07) scale(1.02 1)">2</text><text class="cls-14" transform="translate(226.58 20.07) scale(1.02 1)">1</text><text class="cls-14" transform="translate(228.61 20.07) scale(1.02 1)">8</text><text class="cls-14" transform="translate(230.64 20.07) scale(1.02 1)">B</text><text class="cls-14" transform="translate(241.79 20.58) scale(1.02 1)">1</text><text class="cls-14" transform="translate(243.82 20.58) scale(1.02 1)">2</text><text class="cls-14" transform="translate(245.84 20.58) scale(1.02 1)">4</text><text class="cls-14" transform="translate(247.87 20.58) scale(1.02 1)">0</text></g><g class="cls-13"><text class="cls-15" transform="translate(267.03 18.29) scale(1.02 1)">1</text><text class="cls-15" transform="translate(268.48 18.29) scale(1.02 1)">2</text><text class="cls-15" transform="translate(269.93 18.29) scale(1.02 1)">4</text><text class="cls-15" transform="translate(271.37 18.29) scale(1.02 1)">1</text><text class="cls-15" transform="translate(281.09 18.55) scale(1.02 1)">1</text><text class="cls-15" transform="translate(282.53 18.55) scale(1.02 1)">2</text><text class="cls-15" transform="translate(283.98 18.55) scale(1.02 1)">4</text><text class="cls-15" transform="translate(285.43 18.55) scale(1.02 1)">2</text><text class="cls-15" transform="translate(286.88 18.55) scale(1.02 1)">B</text></g><g class="cls-13"><text class="cls-14" transform="translate(286.29 35.33) scale(1.02 1)">1</text><text class="cls-14" transform="translate(289.25 35.33)">2</text><text class="cls-14" transform="translate(291.23 35.33)">4</text><text class="cls-14" transform="translate(293.21 35.33)">2</text><text class="cls-14" transform="translate(286.81 62.02) scale(1.02 1)">1</text><text class="cls-14" transform="translate(289.76 62.02)">2</text><text class="cls-14" transform="translate(291.74 62.02)">4</text><text class="cls-14" transform="translate(293.72 62.02)">3</text><text class="cls-14" transform="translate(286.55 89.98) scale(1.02 1)">1</text><text class="cls-14" transform="translate(289.51 89.98)">2</text><text class="cls-14" transform="translate(291.49 89.98)">4</text><text class="cls-14" transform="translate(293.47 89.98)">4</text><text class="cls-14" transform="translate(288.29 117.18)">1</text><text class="cls-14" transform="translate(290.27 117.18)">2</text><text class="cls-14" transform="translate(292.25 117.18)">4</text><text class="cls-14" transform="translate(294.23 117.18)">5</text><text class="cls-14" transform="translate(151.74 81.84) scale(1.02 1)">1</text><text class="cls-14" transform="translate(153.77 81.84) scale(1.02 1)">2</text><text class="cls-14" transform="translate(155.79 81.84) scale(1.02 1)">1</text><text class="cls-14" transform="translate(157.82 81.84) scale(1.02 1)">6</text><text class="cls-14" transform="translate(204.66 71.42) scale(1.02 1)">1</text><text class="cls-14" transform="translate(206.69 71.42) scale(1.02 1)">2</text><text class="cls-14" transform="translate(208.71 71.42) scale(1.02 1)">1</text><text class="cls-14" transform="translate(210.74 71.42) scale(1.02 1)">9</text><text class="cls-14" transform="translate(241.79 52.1) scale(1.02 1)">1</text><text class="cls-14" transform="translate(243.82 52.1) scale(1.02 1)">2</text><text class="cls-14" transform="translate(245.84 52.1) scale(1.02 1)">3</text><text class="cls-14" transform="translate(247.87 52.1) scale(1.02 1)">9</text><text class="cls-14" transform="translate(230.6 63.28) scale(1.02 1)">1</text><text class="cls-14" transform="translate(232.63 63.28) scale(1.02 1)">2</text><text class="cls-14" transform="translate(234.65 63.28) scale(1.02 1)">3</text><text class="cls-14" transform="translate(236.68 63.28) scale(1.02 1)">8</text><text class="cls-14" transform="translate(238.7 63.28) scale(1.02 1)">B</text><text class="cls-14" transform="translate(231.9 78.28) scale(1.02 1)">1</text><text class="cls-14" transform="translate(233.93 78.28) scale(1.02 1)">2</text><text class="cls-14" transform="translate(235.95 78.28) scale(1.02 1)">3</text><text class="cls-14" transform="translate(237.98 78.28) scale(1.02 1)">8</text></g><g class="cls-13"><text class="cls-15" transform="translate(153.04 102.44) scale(1.02 1)">1</text><text class="cls-15" transform="translate(154.49 102.44) scale(1.02 1)">2</text><text class="cls-15" transform="translate(155.93 102.44) scale(1.02 1)">3</text><text class="cls-15" transform="translate(157.38 102.44) scale(1.02 1)">1</text><text class="cls-15" transform="translate(153.04 113.49) scale(1.02 1)">1</text><text class="cls-15" transform="translate(154.49 113.49) scale(1.02 1)">2</text><text class="cls-15" transform="translate(155.93 113.49) scale(1.02 1)">3</text><text class="cls-15" transform="translate(157.38 113.49) scale(1.02 1)">0</text><text class="cls-15" transform="translate(153.04 123.79) scale(1.02 1)">1</text><text class="cls-15" transform="translate(154.49 123.79) scale(1.02 1)">2</text><text class="cls-15" transform="translate(155.93 123.79) scale(1.02 1)">2</text><text class="cls-15" transform="translate(157.38 123.79) scale(1.02 1)">9</text><text class="cls-15" transform="translate(155.12 135.23) scale(1.02 1)">1</text><text class="cls-15" transform="translate(156.57 135.23) scale(1.02 1)">2</text><text class="cls-15" transform="translate(158.02 135.23) scale(1.02 1)">2</text><text class="cls-15" transform="translate(159.46 135.23) scale(1.02 1)">8</text><text class="cls-15" transform="translate(169.7 135.23) scale(1.02 1)">1</text><text class="cls-15" transform="translate(171.14 135.23) scale(1.02 1)">2</text><text class="cls-15" transform="translate(172.59 135.23) scale(1.02 1)">2</text><text class="cls-15" transform="translate(174.04 135.23) scale(1.02 1)">7</text><text class="cls-15" transform="translate(181.15 135.23) scale(1.02 1)">1</text><text class="cls-15" transform="translate(182.6 135.23) scale(1.02 1)">2</text><text class="cls-15" transform="translate(184.04 135.23) scale(1.02 1)">2</text><text class="cls-15" transform="translate(185.49 135.23) scale(1.02 1)">6</text><text class="cls-15" transform="translate(192.34 135.23) scale(1.02 1)">1</text><text class="cls-15" transform="translate(193.79 135.23) scale(1.02 1)">2</text><text class="cls-15" transform="translate(195.23 135.23) scale(1.02 1)">2</text><text class="cls-15" transform="translate(196.68 135.23) scale(1.02 1)">5</text><text class="cls-15" transform="translate(203.01 135.31) scale(1.02 1)">1</text><text class="cls-15" transform="translate(204.46 135.31) scale(1.02 1)">2</text><text class="cls-15" transform="translate(205.9 135.31) scale(1.02 1)">2</text><text class="cls-15" transform="translate(207.35 135.31) scale(1.02 1)">4</text><text class="cls-15" transform="translate(214.72 135.31) scale(1.02 1)">1</text><text class="cls-15" transform="translate(216.17 135.31) scale(1.02 1)">2</text><text class="cls-15" transform="translate(217.62 135.31) scale(1.02 1)">2</text><text class="cls-15" transform="translate(219.06 135.31) scale(1.02 1)">3</text><text class="cls-15" transform="translate(187.65 116.16) scale(1.02 1)">1</text><text class="cls-15" transform="translate(189.1 116.16) scale(1.02 1)">2</text><text class="cls-15" transform="translate(190.55 116.16) scale(1.02 1)">2</text><text class="cls-15" transform="translate(192 116.16) scale(1.02 1)">0</text><text class="cls-15" transform="translate(169.7 102.44) scale(1.02 1)">1</text><text class="cls-15" transform="translate(171.14 102.44) scale(1.02 1)">2</text><text class="cls-15" transform="translate(172.59 102.44) scale(1.02 1)">3</text><text class="cls-15" transform="translate(174.04 102.44) scale(1.02 1)">2</text><text class="cls-15" transform="translate(181.15 102.44) scale(1.02 1)">1</text><text class="cls-15" transform="translate(182.6 102.44) scale(1.02 1)">2</text><text class="cls-15" transform="translate(184.04 102.44) scale(1.02 1)">3</text><text class="cls-15" transform="translate(185.49 102.44) scale(1.02 1)">3</text><text class="cls-15" transform="translate(192.34 102.44) scale(1.02 1)">1</text><text class="cls-15" transform="translate(193.79 102.44) scale(1.02 1)">2</text><text class="cls-15" transform="translate(195.23 102.44) scale(1.02 1)">3</text><text class="cls-15" transform="translate(196.68 102.44) scale(1.02 1)">4</text><text class="cls-15" transform="translate(203.01 102.44) scale(1.02 1)">1</text><text class="cls-15" transform="translate(204.46 102.44) scale(1.02 1)">2</text><text class="cls-15" transform="translate(205.9 102.44) scale(1.02 1)">3</text><text class="cls-15" transform="translate(207.35 102.44) scale(1.02 1)">5</text><text class="cls-15" transform="translate(214.72 102.44) scale(1.02 1)">1</text><text class="cls-15" transform="translate(216.17 102.44) scale(1.02 1)">2</text><text class="cls-15" transform="translate(217.62 102.44) scale(1.02 1)">3</text><text class="cls-15" transform="translate(219.06 102.44) scale(1.02 1)">6</text><text class="cls-15" transform="translate(232.16 102.44) scale(1.02 1)">1</text><text class="cls-15" transform="translate(233.61 102.44) scale(1.02 1)">2</text><text class="cls-15" transform="translate(235.05 102.44) scale(1.02 1)">3</text><text class="cls-15" transform="translate(236.5 102.44) scale(1.02 1)">7</text><text class="cls-15" transform="translate(243.22 111.08) scale(1.02 1)">1</text><text class="cls-15" transform="translate(244.67 111.08) scale(1.02 1)">2</text><text class="cls-15" transform="translate(246.11 111.08) scale(1.02 1)">4</text><text class="cls-15" transform="translate(247.56 111.08) scale(1.02 1)">6</text><text class="cls-15" transform="translate(232.16 123.79) scale(1.02 1)">1</text><text class="cls-15" transform="translate(233.61 123.79) scale(1.02 1)">2</text><text class="cls-15" transform="translate(235.05 123.79) scale(1.02 1)">2</text><text class="cls-15" transform="translate(236.5 123.79) scale(1.02 1)">1</text><text class="cls-15" transform="translate(232.16 135.31) scale(1.02 1)">1</text><text class="cls-15" transform="translate(233.61 135.31) scale(1.02 1)">2</text><text class="cls-15" transform="translate(235.05 135.31) scale(1.02 1)">2</text><text class="cls-15" transform="translate(236.5 135.31) scale(1.02 1)">2</text><text class="cls-15" transform="translate(252.98 157.34) scale(1.02 1)">1</text><text class="cls-15" transform="translate(254.43 157.34) scale(1.02 1)">2</text><text class="cls-15" transform="translate(255.87 157.34) scale(1.02 1)">4</text><text class="cls-15" transform="translate(257.32 157.34) scale(1.02 1)">9</text><text class="cls-15" transform="translate(273.02 134.21) scale(1.02 1)">1</text><text class="cls-15" transform="translate(274.47 134.21) scale(1.02 1)">2</text><text class="cls-15" transform="translate(275.91 134.21) scale(1.02 1)">4</text><text class="cls-15" transform="translate(277.36 134.21) scale(1.02 1)">7</text><text class="cls-15" transform="translate(272.76 143.36) scale(1.02 1)">1</text><text class="cls-15" transform="translate(274.21 143.36) scale(1.02 1)">2</text><text class="cls-15" transform="translate(275.65 143.36) scale(1.02 1)">4</text><text class="cls-15" transform="translate(277.1 143.36) scale(1.02 1)">8</text><text class="cls-15" transform="translate(262.09 155.05) scale(1.02 1)">1</text><text class="cls-15" transform="translate(263.53 155.05) scale(1.02 1)">2</text><text class="cls-15" transform="translate(264.98 155.05) scale(1.02 1)">4</text><text class="cls-15" transform="translate(266.43 155.05) scale(1.02 1)">8</text><text class="cls-15" transform="translate(267.88 155.05) scale(1.02 1)">C</text><text class="cls-15" transform="translate(273.28 155.31) scale(1.02 1)">1</text><text class="cls-15" transform="translate(274.73 155.31) scale(1.02 1)">2</text><text class="cls-15" transform="translate(276.17 155.31) scale(1.02 1)">4</text><text class="cls-15" transform="translate(277.62 155.31) scale(1.02 1)">8</text><text class="cls-15" transform="translate(279.07 155.31) scale(1.02 1)">B</text><text class="cls-15" transform="translate(283.69 155.56) scale(1.02 1)">1</text><text class="cls-15" transform="translate(285.14 155.56) scale(1.02 1)">2</text><text class="cls-15" transform="translate(286.58 155.56) scale(1.02 1)">5</text><text class="cls-15" transform="translate(288.97 155.56)">0</text><text class="cls-15" transform="translate(277.7 165.99) scale(1.02 1)">1</text><text class="cls-15" transform="translate(279.15 165.99) scale(1.02 1)">2</text><text class="cls-15" transform="translate(280.6 165.99) scale(1.02 1)">5</text><text class="cls-15" transform="translate(282.04 165.99) scale(1.02 1)">1</text></g><g class="cls-13"><text class="cls-14" transform="translate(135.61 118.45) scale(0.97 1)">1</text><text class="cls-14" transform="translate(137.53 118.45) scale(0.97 1)">2</text><text class="cls-14" transform="translate(139.46 118.45) scale(0.97 1)">1</text><text class="cls-14" transform="translate(141.38 118.45) scale(0.97 1)">0</text><text class="cls-14" transform="translate(97.09 118.45) scale(0.97 1)">1</text><text class="cls-14" transform="translate(99.02 118.45) scale(0.97 1)">2</text><text class="cls-14" transform="translate(100.94 118.45) scale(0.97 1)">0</text><text class="cls-14" transform="translate(102.86 118.45) scale(0.97 1)">9</text></g><g class="cls-16"><path class="cls-8" d="M259.3,129.28a.89.89,0,0,1-.9.88h-5.48a.89.89,0,0,1-.9-.88v-5.35a.89.89,0,0,1,.9-.88h5.48a.89.89,0,0,1,.9.88Z" transform="translate(-9.97 -5.36)"/><path class="cls-17" d="M254.36,128.64v-2.54" transform="translate(-9.97 -5.36)"/><path class="cls-9" d="M255.27,126.09l-.91-1.54-.91,1.54Z" transform="translate(-9.97 -5.36)"/><path class="cls-17" d="M257,124.57v2.54" transform="translate(-9.97 -5.36)"/><path class="cls-9" d="M256.05,127.11l.91,1.54.91-1.54Z" transform="translate(-9.97 -5.36)"/></g><g class="cls-18"><path class="cls-8" d="M274.09,188.42a.89.89,0,0,1-.9.88h-5.48a.89.89,0,0,1-.9-.88v-5.35a.89.89,0,0,1,.9-.88h5.48a.89.89,0,0,1,.9.88Z" transform="translate(-9.97 -5.36)"/><path class="cls-9" d="M270.45,182.8a.48.48,0,1,1-.49.48.49.49,0,0,1,.49-.48" transform="translate(-9.97 -5.36)"/><path class="cls-9" d="M269.93,183.89a.63.63,0,0,0-.62.64V186a.21.21,0,1,0,.42,0v-1.36h.11v3.75a.28.28,0,1,0,.56,0v-2.19h.09v2.19a.29.29,0,1,0,.57,0v-3.75h.11V186a.21.21,0,1,0,.42,0v-1.48a.65.65,0,0,0-.63-.64Z" transform="translate(-9.97 -5.36)"/></g><g class="cls-13"><text class="cls-14" transform="translate(68.45 136.5) scale(0.97 1)">1</text><text class="cls-14" transform="translate(70.37 136.5) scale(0.97 1)">2</text><text class="cls-14" transform="translate(72.3 136.5) scale(0.97 1)">0</text><text class="cls-14" transform="translate(74.22 136.5) scale(0.97 1)">9</text><text class="cls-14" transform="translate(76.14 136.5) scale(0.97 1)">B</text></g><g class="cls-19"><path class="cls-8" d="M81.07,124.19a.87.87,0,0,1-.86.88H75a.87.87,0,0,1-.86-.88v-5.35A.87.87,0,0,1,75,118h5.2a.87.87,0,0,1,.86.88Z" transform="translate(-9.97 -5.36)"/><path class="cls-9" d="M77.62,118.57a.48.48,0,1,1-.47.48.47.47,0,0,1,.47-.48" transform="translate(-9.97 -5.36)"/><path class="cls-9" d="M77.12,119.67a.61.61,0,0,0-.59.64v1.48a.2.2,0,1,0,.4,0v-1.36H77v3.75a.27.27,0,1,0,.53,0V122h.09v2.19a.27.27,0,1,0,.55,0v-3.75h.1v1.36a.2.2,0,1,0,.4,0V120.3a.63.63,0,0,0-.6-.64Z" transform="translate(-9.97 -5.36)"/></g><g class="cls-20"><path class="cls-8" d="M85.54,118.85a.88.88,0,0,1,.86-.89h5.19a.88.88,0,0,1,.86.89v5.34a.88.88,0,0,1-.86.89H86.4a.88.88,0,0,1-.86-.89Z" transform="translate(-9.97 -5.36)"/><path class="cls-21" d="M89,118.49a.49.49,0,1,1-.48.49.49.49,0,0,1,.48-.49" transform="translate(-9.97 -5.36)"/><path class="cls-21" d="M88.93,122.6v1.71a.23.23,0,1,1-.46,0V122.6h-.59l.63-2.29h-.1l-.37,1.3c-.09.29-.47.17-.38-.14l.41-1.41a.66.66,0,0,1,.59-.46h.66a.68.68,0,0,1,.59.46l.41,1.41c.08.31-.29.43-.38.14l-.37-1.3h-.12l.65,2.29h-.6v1.71a.22.22,0,1,1-.44,0V122.6Z" transform="translate(-9.97 -5.36)"/></g><g class="cls-22"><path class="cls-8" d="M284.42,183.07a.9.9,0,0,1,.91-.89h5.47a.9.9,0,0,1,.91.89v5.34a.9.9,0,0,1-.91.89h-5.47a.9.9,0,0,1-.91-.89Z" transform="translate(-9.97 -5.36)"/><path class="cls-21" d="M288.06,182.72a.49.49,0,1,1-.5.49.5.5,0,0,1,.5-.49" transform="translate(-9.97 -5.36)"/><path class="cls-21" d="M288,186.82v1.71a.24.24,0,0,1-.48,0v-1.71h-.62l.67-2.29h-.11l-.39,1.3a.21.21,0,1,1-.4-.14l.43-1.41a.68.68,0,0,1,.62-.46h.7a.71.71,0,0,1,.62.46l.43,1.41a.21.21,0,1,1-.4.14l-.39-1.3h-.12l.68,2.29h-.64v1.71a.23.23,0,1,1-.47,0v-1.71Z" transform="translate(-9.97 -5.36)"/></g><g class="cls-23"><path class="cls-8" d="M247.66,14.89a.89.89,0,0,1-.9.88h-5.48a.89.89,0,0,1-.9-.88V9.53a.89.89,0,0,1,.9-.88h5.48a.89.89,0,0,1,.9.88Z" transform="translate(-9.97 -5.36)"/><path class="cls-17" d="M241.41,14h1.79l0-1.53,1.58,0V10.94h1.87" transform="translate(-9.97 -5.36)"/></g><g class="cls-24"><path class="cls-8" d="M46.4,90.51a.87.87,0,0,1-.86.88h-5.2a.87.87,0,0,1-.86-.88V85.16a.87.87,0,0,1,.86-.88h5.2a.87.87,0,0,1,.86.88Z" transform="translate(-9.97 -5.36)"/><path class="cls-17" d="M40.48,89.62h1.7l0-1.53,1.5,0V86.57h1.77" transform="translate(-9.97 -5.36)"/></g><g class="cls-13"><text class="cls-14" transform="translate(39.81 185.3) scale(0.97 1)">1</text><text class="cls-14" transform="translate(41.48 185.3) scale(0.97 1)">1</text><text class="cls-14" transform="translate(43.4 185.3) scale(0.97 1)">2</text><text class="cls-14" transform="translate(45.32 185.3) scale(0.97 1)">7</text><text class="cls-14" transform="translate(47.24 185.3) scale(0.97 1)">B</text><text class="cls-14" transform="translate(39.81 197.06) scale(0.97 1)">1</text><text class="cls-14" transform="translate(41.48 197.06) scale(0.97 1)">1</text><text class="cls-14" transform="translate(43.4 197.06) scale(0.97 1)">2</text><text class="cls-14" transform="translate(45.32 197.06) scale(0.97 1)">7</text><text class="cls-14" transform="translate(61.54 186.83) scale(0.97 1)">1</text><text class="cls-14" transform="translate(63.21 186.83) scale(0.97 1)">1</text><text class="cls-14" transform="translate(65.13 186.83) scale(0.97 1)">2</text><text class="cls-14" transform="translate(67.05 186.83) scale(0.97 1)">6</text><text class="cls-14" transform="translate(61.54 199.54) scale(0.97 1)">1</text><text class="cls-14" transform="translate(63.21 199.54) scale(0.97 1)">1</text><text class="cls-14" transform="translate(65.13 199.54) scale(0.97 1)">2</text><text class="cls-14" transform="translate(67.05 199.54) scale(0.97 1)">5</text><text class="cls-14" transform="translate(80.88 185.81) scale(0.97 1)">1</text><text class="cls-14" transform="translate(82.55 185.81) scale(0.97 1)">1</text><text class="cls-14" transform="translate(84.47 185.81) scale(0.97 1)">2</text><text class="cls-14" transform="translate(86.39 185.81) scale(0.97 1)">2</text><text class="cls-14" transform="translate(80.88 197.89) scale(0.97 1)">1</text><text class="cls-14" transform="translate(82.55 197.89) scale(0.97 1)">1</text><text class="cls-14" transform="translate(84.47 197.89) scale(0.97 1)">2</text><text class="cls-14" transform="translate(86.39 197.89) scale(0.97 1)">3</text><text class="cls-14" transform="translate(101.26 191.6) scale(0.97 1)">1</text><text class="cls-14" transform="translate(102.93 191.6) scale(0.97 1)">1</text><text class="cls-14" transform="translate(104.85 191.6) scale(0.97 1)">2</text><text class="cls-14" transform="translate(106.77 191.6) scale(0.97 1)">0</text><text class="cls-14" transform="translate(123.02 191.6) scale(0.97 1)">1</text><text class="cls-14" transform="translate(124.69 191.6) scale(0.97 1)">1</text><text class="cls-14" transform="translate(126.36 191.6) scale(0.97 1)">1</text><text class="cls-14" transform="translate(128.28 191.6) scale(0.97 1)">9</text><text class="cls-14" transform="translate(140.8 191.6) scale(0.97 1)">1</text><text class="cls-14" transform="translate(142.47 191.6) scale(0.97 1)">1</text><text class="cls-14" transform="translate(144.13 191.6) scale(0.97 1)">1</text><text class="cls-14" transform="translate(146.06 191.6) scale(0.97 1)">8</text><text class="cls-14" transform="translate(151.74 185.3) scale(1.02 1)">1</text><text class="cls-14" transform="translate(153.5 185.3) scale(1.02 1)">1</text><text class="cls-14" transform="translate(155.26 185.3) scale(1.02 1)">1</text><text class="cls-14" transform="translate(157.28 185.3) scale(1.02 1)">4</text><text class="cls-14" transform="translate(151.74 197.89) scale(1.02 1)">1</text><text class="cls-14" transform="translate(153.5 197.89) scale(1.02 1)">1</text><text class="cls-14" transform="translate(155.26 197.89) scale(1.02 1)">1</text><text class="cls-14" transform="translate(157.28 197.89) scale(1.02 1)">5</text><text class="cls-14" transform="translate(172.7 185.47) scale(1.02 1)">1</text><text class="cls-14" transform="translate(174.45 185.47) scale(1.02 1)">1</text><text class="cls-14" transform="translate(176.21 185.47) scale(1.02 1)">1</text><text class="cls-14" transform="translate(178.23 185.47) scale(1.02 1)">2</text><text class="cls-14" transform="translate(172.15 197.89) scale(1.02 1)">1</text><text class="cls-14" transform="translate(173.91 197.89) scale(1.02 1)">1</text><text class="cls-14" transform="translate(175.66 197.89) scale(1.02 1)">1</text><text class="cls-14" transform="translate(177.42 197.89) scale(1.02 1)">1</text><text class="cls-14" transform="translate(187.66 181.41) scale(1.02 1)">1</text><text class="cls-14" transform="translate(189.42 181.41) scale(1.02 1)">1</text><text class="cls-14" transform="translate(191.44 181.41) scale(1.02 1)">0</text><text class="cls-14" transform="translate(193.47 181.41) scale(1.02 1)">9</text><text class="cls-14" transform="translate(187.66 197.89) scale(1.02 1)">1</text><text class="cls-14" transform="translate(189.42 197.89) scale(1.02 1)">1</text><text class="cls-14" transform="translate(191.17 197.89) scale(1.02 1)">1</text><text class="cls-14" transform="translate(193.2 197.89) scale(1.02 1)">0</text><text class="cls-14" transform="translate(216.29 188.1) scale(1.02 1)">1</text><text class="cls-14" transform="translate(218.04 188.1) scale(1.02 1)">1</text><text class="cls-14" transform="translate(220.07 188.1) scale(1.02 1)">0</text><text class="cls-14" transform="translate(222.1 188.1) scale(1.02 1)">7</text><text class="cls-14" transform="translate(253.24 199.54) scale(1.02 1)">1</text><text class="cls-14" transform="translate(255 199.54) scale(1.02 1)">1</text><text class="cls-14" transform="translate(257.03 199.54) scale(1.02 1)">0</text><text class="cls-14" transform="translate(259.05 199.54) scale(1.02 1)">6</text><text class="cls-14" transform="translate(276.93 199.54) scale(1.02 1)">1</text><text class="cls-14" transform="translate(278.68 199.54) scale(1.02 1)">1</text><text class="cls-14" transform="translate(280.71 199.54) scale(1.02 1)">0</text><text class="cls-14" transform="translate(282.74 199.54) scale(1.02 1)">3</text><text class="cls-25" transform="translate(51.12 221.22) scale(0.97 1)">1</text><text class="cls-25" transform="translate(52.74 221.22) scale(0.97 1)">1</text><text class="cls-25" transform="translate(54.62 221.22) scale(0.97 1)">3</text><text class="cls-25" transform="translate(56.5 221.22) scale(0.97 1)">0</text><text class="cls-25" transform="translate(78.61 232.07) scale(0.97 1)">1</text><text class="cls-25" transform="translate(80.24 232.07) scale(0.97 1)">1</text><text class="cls-25" transform="translate(82.11 232.07) scale(0.97 1)">3</text><text class="cls-25" transform="translate(83.99 232.07) scale(0.97 1)">2</text><text class="cls-25" transform="translate(106.1 232.07) scale(0.97 1)">1</text><text class="cls-25" transform="translate(107.73 232.07) scale(0.97 1)">1</text><text class="cls-25" transform="translate(109.61 232.07) scale(0.97 1)">3</text><text class="cls-25" transform="translate(111.48 232.07) scale(0.97 1)">3</text><text class="cls-25" transform="translate(127.81 216.76) scale(0.97 1)">1</text><text class="cls-25" transform="translate(129.44 216.76) scale(0.97 1)">1</text><text class="cls-25" transform="translate(131.31 216.76) scale(0.97 1)">3</text><text class="cls-25" transform="translate(133.19 216.76) scale(0.97 1)">4</text><text class="cls-25" transform="translate(128.01 227.48) scale(0.97 1)">1</text><text class="cls-25" transform="translate(129.64 227.48) scale(0.97 1)">1</text><text class="cls-25" transform="translate(131.51 227.48) scale(0.97 1)">3</text><text class="cls-25" transform="translate(133.39 227.48) scale(0.97 1)">5</text><text class="cls-25" transform="translate(128.53 242.66) scale(0.97 1)">1</text><text class="cls-25" transform="translate(130.16 242.66) scale(0.97 1)">1</text><text class="cls-25" transform="translate(132.04 242.66) scale(0.97 1)">3</text><text class="cls-25" transform="translate(133.91 242.66) scale(0.97 1)">6</text><text class="cls-25" transform="translate(148.49 232.07) scale(1.03 1)">1</text><text class="cls-25" transform="translate(150.2 232.07) scale(1.03 1)">1</text><text class="cls-25" transform="translate(152.18 232.07) scale(1.03 1)">3</text><text class="cls-25" transform="translate(154.16 232.07) scale(1.03 1)">7</text><text class="cls-25" transform="translate(171.87 232.07) scale(1.03 1)">1</text><text class="cls-25" transform="translate(173.59 232.07) scale(1.03 1)">1</text><text class="cls-25" transform="translate(175.57 232.07) scale(1.03 1)">3</text><text class="cls-25" transform="translate(177.55 232.07) scale(1.03 1)">8</text><text class="cls-25" transform="translate(196.28 232.07) scale(1.03 1)">1</text><text class="cls-25" transform="translate(197.99 232.07) scale(1.03 1)">1</text><text class="cls-25" transform="translate(199.97 232.07) scale(1.03 1)">3</text><text class="cls-25" transform="translate(201.95 232.07) scale(1.03 1)">9</text><text class="cls-25" transform="translate(232.88 232.07) scale(1.03 1)">1</text><text class="cls-25" transform="translate(234.6 232.07) scale(1.03 1)">1</text><text class="cls-25" transform="translate(236.57 232.07) scale(1.03 1)">4</text><text class="cls-25" transform="translate(238.55 232.07) scale(1.03 1)">0</text><text class="cls-14" transform="translate(162.42 81.84) scale(1.02 1)">1</text><text class="cls-14" transform="translate(164.44 81.84) scale(1.02 1)">2</text><text class="cls-14" transform="translate(166.47 81.84) scale(1.02 1)">1</text><text class="cls-14" transform="translate(168.5 81.84) scale(1.02 1)">5</text><text class="cls-14" transform="translate(173.61 81.84) scale(1.02 1)">1</text><text class="cls-14" transform="translate(175.63 81.84) scale(1.02 1)">2</text><text class="cls-14" transform="translate(177.66 81.84) scale(1.02 1)">1</text><text class="cls-14" transform="translate(179.68 81.84) scale(1.02 1)">4</text><text class="cls-14" transform="translate(299.48 192.17)">1</text><text class="cls-14" transform="translate(301.2 192.17)">1</text><text class="cls-14" transform="translate(303.17 192.17)">0</text><text class="cls-14" transform="translate(305.15 192.17)">2</text></g><g class="cls-26"><path class="cls-8" d="M277,173.51a.89.89,0,0,1-.9.88h-5.48a.89.89,0,0,1-.9-.88v-5.35a.89.89,0,0,1,.9-.88h5.48a.89.89,0,0,1,.9.88Z" transform="translate(-9.97 -5.36)"/><path class="cls-9" d="M273.14,169.79a.6.6,0,0,1,.61-.6h1.51v-.71h-1.62a1.21,1.21,0,0,0-1.22,1.19v.76h.72Z" transform="translate(-9.97 -5.36)"/><path class="cls-9" d="M275.34,168.37a.34.34,0,0,1,.34-.34v1.6a.34.34,0,0,1-.34-.34Z" transform="translate(-9.97 -5.36)"/><path class="cls-9" d="M273.42,170.7a.18.18,0,0,0-.19-.18h-.91a.18.18,0,0,0-.19.18v.14a1.56,1.56,0,0,0-1,1.26h3.35a1.56,1.56,0,0,0-1-1.26Z" transform="translate(-9.97 -5.36)"/><path class="cls-9" d="M274.42,172.3h-3.27s-.11,0-.11-.07.11-.07.11-.07h3.27a.08.08,0,1,1,0,.13" transform="translate(-9.97 -5.36)"/><path class="cls-9" d="M274.4,172.79a.19.19,0,0,1-.37,0c0-.1.19-.29.19-.29s.19.19.19.29" transform="translate(-9.97 -5.36)"/><path class="cls-9" d="M273.66,172.79a.19.19,0,0,1-.37,0c0-.1.19-.29.19-.29s.19.19.19.29" transform="translate(-9.97 -5.36)"/><path class="cls-9" d="M272.93,172.79a.19.19,0,0,1-.37,0c0-.1.19-.29.19-.29s.19.19.19.29" transform="translate(-9.97 -5.36)"/><path class="cls-9" d="M272.2,172.79a.19.19,0,0,1-.37,0c0-.1.19-.29.19-.29s.19.19.19.29" transform="translate(-9.97 -5.36)"/><path class="cls-9" d="M271.46,172.79a.19.19,0,0,1-.37,0c0-.1.19-.29.19-.29s.19.19.19.29" transform="translate(-9.97 -5.36)"/><path class="cls-9" d="M271.83,173.45a.19.19,0,0,1-.37,0c0-.1.19-.29.19-.29s.19.19.19.29" transform="translate(-9.97 -5.36)"/><path class="cls-9" d="M272.57,173.45a.19.19,0,0,1-.37,0c0-.1.19-.29.19-.29s.19.19.19.29" transform="translate(-9.97 -5.36)"/><path class="cls-9" d="M273.29,173.42a.19.19,0,0,1-.37,0c0-.1.19-.28.19-.28s.19.18.19.28" transform="translate(-9.97 -5.36)"/><path class="cls-9" d="M274,173.42a.19.19,0,0,1-.37,0c0-.1.19-.28.19-.28s.19.18.19.28" transform="translate(-9.97 -5.36)"/><path class="cls-9" d="M274.54,172.24c0,.07-.11.07-.11.07" transform="translate(-9.97 -5.36)"/><path class="cls-9" d="M274.42,172.17s.11,0,.11.07" transform="translate(-9.97 -5.36)"/></g></svg>