<svg id="Layer_2" data-name="Layer 2" xmlns="http://www.w3.org/2000/svg" xmlns:xlink="http://www.w3.org/1999/xlink" viewBox="0 0 396.25 330.05"><defs><style>.cls-1,.cls-10,.cls-16,.cls-4{fill:none;}.cls-2{clip-path:url(#clip-path);}.cls-3,.cls-5{fill:#a8acb8;}.cls-10,.cls-4,.cls-5,.cls-6,.cls-9{stroke:#fff;}.cls-10,.cls-16,.cls-4,.cls-5,.cls-6,.cls-9{stroke-miterlimit:10;}.cls-12,.cls-13,.cls-14,.cls-24,.cls-6,.cls-7{fill:#fff;}.cls-8,.cls-9{fill:#00704a;}.cls-10{stroke-width:2px;}.cls-11,.cls-12,.cls-13,.cls-14,.cls-24{isolation:isolate;}.cls-12{font-size:4.3px;}.cls-12,.cls-13,.cls-14,.cls-24{font-family:ArialMT, Arial;}.cls-13{font-size:3.07px;}.cls-14{font-size:2.99px;}.cls-15{clip-path:url(#clip-path-5);}.cls-16{stroke:#00704a;}.cls-17{clip-path:url(#clip-path-6);}.cls-18{clip-path:url(#clip-path-7);}.cls-19{clip-path:url(#clip-path-8);}.cls-20{fill:#226e48;}.cls-21{clip-path:url(#clip-path-9);}.cls-22{clip-path:url(#clip-path-10);}.cls-23{clip-path:url(#clip-path-11);}.cls-24{font-size:4.19px;}.cls-25{clip-path:url(#clip-path-12);}</style><clipPath id="clip-path" transform="translate(-6.68 -5.4)"><rect class="cls-1" y="5.91" width="402.82" height="329.05"/></clipPath><clipPath id="clip-path-5" transform="translate(-6.68 -5.4)"><rect class="cls-1" x="283.29" y="147.58" width="9.03" height="8.6"/></clipPath><clipPath id="clip-path-6" transform="translate(-6.68 -5.4)"><rect class="cls-1" x="301.63" y="213.41" width="9.03" height="8.38"/></clipPath><clipPath id="clip-path-7" transform="translate(-6.68 -5.4)"><rect class="cls-1" x="81.59" y="141.43" width="8.08" height="8.6"/></clipPath><clipPath id="clip-path-8" transform="translate(-6.68 -5.4)"><rect class="cls-1" x="94.89" y="141.43" width="8.08" height="8.6"/></clipPath><clipPath id="clip-path-9" transform="translate(-6.68 -5.4)"><rect class="cls-1" x="333.74" y="213.41" width="9.32" height="8.38"/></clipPath><clipPath id="clip-path-10" transform="translate(-6.68 -5.4)"><rect class="cls-1" x="279.93" y="9.29" width="8.21" height="8.6"/></clipPath><clipPath id="clip-path-11" transform="translate(-6.68 -5.4)"><rect class="cls-1" x="41.08" y="100.71" width="8.08" height="8.6"/></clipPath><clipPath id="clip-path-12" transform="translate(-6.68 -5.4)"><rect class="cls-1" x="305.23" y="201.05" width="9.03" height="3.18"/></clipPath></defs><title>floor1_hbuilding</title><g class="cls-2"><path class="cls-3" d="M31.65,175.06V140.49l-15.38,0-9-20.85L50,94.13,48,90l8.42-4.51V81.2H78.92V74.74h37.8V53.94c34.22-13.08,77-24.58,123.91-32.45,8.77-1.47,15.29-2.77,24-3.91h0V5.9H304.2v6.76H315V23.11h43.59v7.07h32.9V161.71h-32.9v44.51h32.9v52.45h1.79l5.24-4.59h3l-45.84,40.39h0L358,297l-16.28,14.51-2.35-2.58L300.29,335h-3.52l3.52-3.19H256.4v-2H239.2v2H211.6v-2h-9.81v2h-27.7v-2h-9.81v2H136.87v-2h-10v2H99.17v-2H89.45v2H71.08v-2H61.37v2H33.48V326.2h7.79V215.1H66.95V175h12v28.3h23.95V215.1H230v-8.88h61.76V175Z" transform="translate(-6.68 -5.4)"/><path class="cls-4" d="M31.65,175.06V140.49l-15.38,0-9-20.85L50,94.13,48,90l8.42-4.51V81.2H78.92V74.74h37.8V53.94c34.22-13.08,77-24.58,123.91-32.45,8.77-1.47,15.29-2.77,24-3.91h0V5.9H304.2v6.76H315V23.11h43.59v7.07h32.9V161.71h-32.9v44.51h32.9v52.45h1.79l5.24-4.59h3l-45.84,40.39h0L358,297l-16.28,14.51-2.35-2.58L300.29,335h-3.52l3.52-3.19H256.4v-2H239.2v2H211.6v-2h-9.81v2h-27.7v-2h-9.81v2H136.87v-2h-10v2H99.17v-2H89.45v2H71.08v-2H61.37v2H33.48V326.2h7.79V215.1H66.95V175h12v28.3h23.95V215.1H230v-8.88h61.76V175Z" transform="translate(-6.68 -5.4)"/><path class="cls-3" d="M335.63,311.48l-21.15-11.12,27.91-14.51L353.55,297Z" transform="translate(-6.68 -5.4)"/><path class="cls-4" d="M335.63,311.48l-11.07-10.71,17.83-14.93L353.55,297Z" transform="translate(-6.68 -5.4)"/><path class="cls-5" d="M295.55,206.23H281.84" transform="translate(-6.68 -5.4)"/><path class="cls-5" d="M294.43,202.66V171.34" transform="translate(-6.68 -5.4)"/><path class="cls-5" d="M84.74,100.87v20.28" transform="translate(-6.68 -5.4)"/><path class="cls-5" d="M69.54,132.62h9.38" transform="translate(-6.68 -5.4)"/><path class="cls-5" d="M89.45,215.11h8.87" transform="translate(-6.68 -5.4)"/><path class="cls-5" d="M281.84,244.62h13.71" transform="translate(-6.68 -5.4)"/><path class="cls-5" d="M295.55,54.77V60" transform="translate(-6.68 -5.4)"/><path class="cls-3" d="M19.28,112.51l9,20.85h3.41v7.14l-15.38,0-9-20.85Z" transform="translate(-6.68 -5.4)"/><path class="cls-4" d="M19.28,112.51l9,20.85h3.41v7.14l-15.38,0-9-20.85Z" transform="translate(-6.68 -5.4)"/></g><path class="cls-6" d="M144.29,171.34h12.87V175H144.29Z" transform="translate(-6.68 -5.4)"/><path class="cls-6" d="M84.74,110.49H78.92v2h5.82Z" transform="translate(-6.68 -5.4)"/><path class="cls-6" d="M84.74,100.87H78.92v1.95h5.82Z" transform="translate(-6.68 -5.4)"/><path class="cls-6" d="M78.92,126.5H77.58v6.12h1.35Z" transform="translate(-6.68 -5.4)"/><path class="cls-6" d="M31.65,126.51h3.27v11.23H31.65Z" transform="translate(-6.68 -5.4)"/><path class="cls-6" d="M192.65,121.15h-1.71V125h1.71Z" transform="translate(-6.68 -5.4)"/><path class="cls-6" d="M293.14,37.71h2.42V34.79h-2.42Z" transform="translate(-6.68 -5.4)"/><path class="cls-6" d="M297.65,257.25h-3.23v2.84h3.23Z" transform="translate(-6.68 -5.4)"/><path class="cls-6" d="M81.23,256.28H78.92v3.81h2.31Z" transform="translate(-6.68 -5.4)"/><path class="cls-6" d="M61.37,331.77H33.48V326.2H61.37Z" transform="translate(-6.68 -5.4)"/><path class="cls-6" d="M89.45,329.77H71.08v2H89.45Z" transform="translate(-6.68 -5.4)"/><path class="cls-6" d="M126.87,329.77H99.17v2h27.7Z" transform="translate(-6.68 -5.4)"/><path class="cls-6" d="M136.87,329.77h27.41v2H136.87Z" transform="translate(-6.68 -5.4)"/><path class="cls-6" d="M201.79,331.77h-27.7v-2h27.7Z" transform="translate(-6.68 -5.4)"/><path class="cls-6" d="M239.2,331.77H211.6v-2h27.6Z" transform="translate(-6.68 -5.4)"/><path class="cls-7" d="M256.39,326.2v5.56h43.89L296.77,335h3.52l3.51-3.19,6.12-5.56Z" transform="translate(-6.68 -5.4)"/><g class="cls-2"><path class="cls-4" d="M309.92,326.2H256.4v5.57h43.89L296.77,335h3.52l3.51-3.19Z" transform="translate(-6.68 -5.4)"/></g><path class="cls-6" d="M347.72,258.68h2.91v-1.42h-2.91Z" transform="translate(-6.68 -5.4)"/><path class="cls-7" d="M381,270.49h-8.7l-27.63,22,3.94,4Z" transform="translate(-6.68 -5.4)"/><path class="cls-4" d="M381,270.49h-8.7l-27.63,22,3.94,4Z" transform="translate(-6.68 -5.4)"/><g class="cls-2"><path class="cls-6" d="M264.61,17.58h0c-8.67,1.14-15.19,2.44-24,3.91-46.92,7.87-89.69,19.37-123.91,32.45v4.82h75.93v-24h72V17.58" transform="translate(-6.68 -5.4)"/><path class="cls-7" d="M398.15,254.09h3.33l-5.73,4.59h-3.37Z" transform="translate(-6.68 -5.4)"/><path class="cls-4" d="M398.15,254.09h3.33l-5.73,4.59h-3.37Z" transform="translate(-6.68 -5.4)"/></g><path class="cls-8" d="M67.67,132.62v8.81h-6.3V126.5h8.18v6.12Z" transform="translate(-6.68 -5.4)"/><path class="cls-4" d="M67.67,132.62v8.81h-6.3V126.5h8.18v6.12Z" transform="translate(-6.68 -5.4)"/><path class="cls-8" d="M61.37,149V137.74H31.65v37.32h36V149Z" transform="translate(-6.68 -5.4)"/><path class="cls-4" d="M61.37,149V137.74H31.65v37.32h36V149Z" transform="translate(-6.68 -5.4)"/><path class="cls-8" d="M84.74,130.88v-9.73H78.92v41.79H92.34V130.88Z" transform="translate(-6.68 -5.4)"/><path class="cls-4" d="M84.74,130.88v-9.73H78.92v41.79H92.34V130.88Z" transform="translate(-6.68 -5.4)"/><path class="cls-8" d="M92.34,162.95h13.18V121.15H99.16v9.73H92.34Z" transform="translate(-6.68 -5.4)"/><path class="cls-4" d="M92.34,162.95h13.18V121.15H99.16v9.73H92.34Z" transform="translate(-6.68 -5.4)"/><path class="cls-9" d="M105.52,162.95H78.92V175h26.59Z" transform="translate(-6.68 -5.4)"/><path class="cls-8" d="M136.87,125v-3.89h-24V125h-7.31v50H144.3V125Z" transform="translate(-6.68 -5.4)"/><path class="cls-4" d="M136.87,125v-3.89h-24V125h-7.31v50H144.3V125Z" transform="translate(-6.68 -5.4)"/><path class="cls-8" d="M184.19,125v-3.89h-32.7V125h-7.19v39h8.15v7.27h4.71V175h35.49V125Z" transform="translate(-6.68 -5.4)"/><path class="cls-4" d="M184.19,125v-3.89h-32.7V125h-7.19v39h8.15v7.27h4.71V175h35.49V125Z" transform="translate(-6.68 -5.4)"/><path class="cls-9" d="M116.72,74.75H78.92v26.12h37.8Z" transform="translate(-6.68 -5.4)"/><path class="cls-8" d="M155.33,58.77H116.72V110.5H148.6V106h6.73Z" transform="translate(-6.68 -5.4)"/><path class="cls-4" d="M155.33,58.77H116.72V110.5H148.6V106h6.73Z" transform="translate(-6.68 -5.4)"/><path class="cls-8" d="M192.65,110.49H162.19V106h-6.85V58.76h37.32Z" transform="translate(-6.68 -5.4)"/><path class="cls-4" d="M192.65,110.49H162.19V106h-6.85V58.76h37.32Z" transform="translate(-6.68 -5.4)"/><path class="cls-9" d="M205.35,94.11h-12.7V110.5h12.7Z" transform="translate(-6.68 -5.4)"/><path class="cls-9" d="M216.6,109.78H205.35V94.11H216.6Z" transform="translate(-6.68 -5.4)"/><path class="cls-9" d="M230,94.11H216.6v15.67H230Z" transform="translate(-6.68 -5.4)"/><path class="cls-8" d="M230,34.79H192.65V82.63h6.73v4.51h27.89v-8.4H230Z" transform="translate(-6.68 -5.4)"/><path class="cls-4" d="M230,34.79H192.65V82.63h6.73v4.51h27.89v-8.4H230Z" transform="translate(-6.68 -5.4)"/><path class="cls-8" d="M290.12,34.79H230V71.37h10.39v3.38h49.76Z" transform="translate(-6.68 -5.4)"/><path class="cls-4" d="M290.12,34.79H230V71.37h10.39v3.38h49.76Z" transform="translate(-6.68 -5.4)"/><path class="cls-9" d="M264.61,23.12h25.51V34.79H264.61Z" transform="translate(-6.68 -5.4)"/><path class="cls-8" d="M264.61,23.12h39.59V5.91H264.61Z" transform="translate(-6.68 -5.4)"/><g class="cls-2"><path class="cls-4" d="M304.19,5.91H264.61V23.12h39.59Z" transform="translate(-6.68 -5.4)"/></g><path class="cls-9" d="M280.06,34.79h15.49V23.12H280.06Z" transform="translate(-6.68 -5.4)"/><path class="cls-9" d="M295.55,74.75H280.06V60h15.49Z" transform="translate(-6.68 -5.4)"/><path class="cls-8" d="M300.31,81.2l0-6.45h-29.6v12.4H304.2V81.2Z" transform="translate(-6.68 -5.4)"/><path class="cls-4" d="M300.31,81.2l0-6.45h-29.6v12.4H304.2V81.2Z" transform="translate(-6.68 -5.4)"/><path class="cls-8" d="M270.69,110.49H304.2V109h-3.91V99.79h3.91V87.14H270.69Z" transform="translate(-6.68 -5.4)"/><path class="cls-4" d="M270.69,110.49H304.2V109h-3.91V99.79h3.91V87.14H270.69Z" transform="translate(-6.68 -5.4)"/><path class="cls-9" d="M270.69,74.75H240.35V110.5h30.33Z" transform="translate(-6.68 -5.4)"/><path class="cls-8" d="M310.07,56.41v7h80.35V30.19H310.07v7.53h-3.39v18.7Z" transform="translate(-6.68 -5.4)"/><path class="cls-4" d="M310.07,56.41v7h80.35V30.19H310.07v7.53h-3.39v18.7Z" transform="translate(-6.68 -5.4)"/><path class="cls-9" d="M339.67,23.12h-33v7.07h33Z" transform="translate(-6.68 -5.4)"/><path class="cls-9" d="M354.21,30.19H339.67V23.12h14.54Z" transform="translate(-6.68 -5.4)"/><path class="cls-8" d="M310.07,70.24V63.43h80.35V96.05H310.07v-7h-3.39V70.24Z" transform="translate(-6.68 -5.4)"/><path class="cls-4" d="M310.07,70.24V63.43h80.35V96.05H310.07v-7h-3.39V70.24Z" transform="translate(-6.68 -5.4)"/><path class="cls-8" d="M310.07,102.82V96.05h80.35v32.58H310.07v-7.48h-3.39V102.82Z" transform="translate(-6.68 -5.4)"/><path class="cls-4" d="M310.07,102.82V96.05h80.35v32.58H310.07v-7.48h-3.39V102.82Z" transform="translate(-6.68 -5.4)"/><path class="cls-8" d="M310.07,135.9v-7.27h80.35v33.09H310.07v-7.78h-3.39v-18Z" transform="translate(-6.68 -5.4)"/><path class="cls-4" d="M310.07,135.9v-7.27h80.35v33.09H310.07v-7.78h-3.39v-18Z" transform="translate(-6.68 -5.4)"/><path class="cls-9" d="M354.21,161.72H306.68v10.15h47.53Z" transform="translate(-6.68 -5.4)"/><path class="cls-9" d="M354.21,185H306.68V171.86h47.53Z" transform="translate(-6.68 -5.4)"/><path class="cls-9" d="M354.21,185h-9.93V198.8h9.93Z" transform="translate(-6.68 -5.4)"/><path class="cls-9" d="M329.52,198.8h14.76V185H329.52Z" transform="translate(-6.68 -5.4)"/><path class="cls-9" d="M306.69,185h22.84V198.8H306.69Z" transform="translate(-6.68 -5.4)"/><path class="cls-9" d="M294.43,198.8h12.26v-7.68H294.43Z" transform="translate(-6.68 -5.4)"/><path class="cls-9" d="M317.33,206.23H302V198.8h15.38Z" transform="translate(-6.68 -5.4)"/><path class="cls-9" d="M354.21,198.8H317.33v7.42h36.88Z" transform="translate(-6.68 -5.4)"/><path class="cls-9" d="M294.43,144.3H281.84v15.78h12.58Z" transform="translate(-6.68 -5.4)"/><path class="cls-9" d="M281.84,133.85h12.58V144.3H281.84Z" transform="translate(-6.68 -5.4)"/><path class="cls-8" d="M291.74,133.85v12.7H278.39V121.15h24.78v12.7Z" transform="translate(-6.68 -5.4)"/><path class="cls-4" d="M291.74,133.85v12.7H278.39V121.15h24.78v12.7Z" transform="translate(-6.68 -5.4)"/><path class="cls-9" d="M278.39,161.11h13.34V175H278.39Z" transform="translate(-6.68 -5.4)"/><path class="cls-9" d="M291.74,146.55H278.39V161.1h13.34Z" transform="translate(-6.68 -5.4)"/><path class="cls-9" d="M271.74,160.07H259v15h12.71Z" transform="translate(-6.68 -5.4)"/><path class="cls-9" d="M248.63,175H259v-15H248.63Z" transform="translate(-6.68 -5.4)"/><path class="cls-9" d="M248.63,160.07H236.32v15h12.31Z" transform="translate(-6.68 -5.4)"/><path class="cls-9" d="M223.81,174.93h12.5V160.08h-12.5Z" transform="translate(-6.68 -5.4)"/><path class="cls-9" d="M211.6,160.07h12.22v14.85H211.6Z" transform="translate(-6.68 -5.4)"/><path class="cls-9" d="M192.65,175H211.6v-15H192.65Z" transform="translate(-6.68 -5.4)"/><path class="cls-9" d="M205.35,148h-12.7v12.09h12.7Z" transform="translate(-6.68 -5.4)"/><path class="cls-9" d="M192.65,135.9h12.7V148h-12.7Z" transform="translate(-6.68 -5.4)"/><path class="cls-9" d="M205.35,121.15h-12.7V135.9h12.7Z" transform="translate(-6.68 -5.4)"/><path class="cls-9" d="M223.81,135.9H211.6V121.15h12.22Z" transform="translate(-6.68 -5.4)"/><path class="cls-9" d="M236.31,121.15h-12.5V135.9h12.5Z" transform="translate(-6.68 -5.4)"/><path class="cls-9" d="M248.63,135.9H236.32V121.15h12.31Z" transform="translate(-6.68 -5.4)"/><path class="cls-9" d="M259,121.15H248.62V135.9H259Z" transform="translate(-6.68 -5.4)"/><path class="cls-9" d="M271.74,135.9H259V121.15h12.71Z" transform="translate(-6.68 -5.4)"/><path class="cls-8" d="M205.35,125h6.25V135.9h60.14V125h6.65v50h-6.65v-15H205.35Z" transform="translate(-6.68 -5.4)"/><path class="cls-4" d="M205.35,125h6.25V135.9h60.14V125h6.65v50h-6.65v-15H205.35Z" transform="translate(-6.68 -5.4)"/><path class="cls-8" d="M303.46,227.42h13.87v5.83H295.56v-27h21.78v21.19Z" transform="translate(-6.68 -5.4)"/><path class="cls-4" d="M303.46,227.42h13.87v5.83H295.56v-27h21.78v21.19Z" transform="translate(-6.68 -5.4)"/><path class="cls-8" d="M338.9,227.42H317.33V206.23h30.39v27H317.33v-5.83Z" transform="translate(-6.68 -5.4)"/><path class="cls-4" d="M338.9,227.42H317.33V206.23h30.39v27H317.33v-5.83Z" transform="translate(-6.68 -5.4)"/><path class="cls-9" d="M295.55,244.62H309V233.25H295.55Z" transform="translate(-6.68 -5.4)"/><path class="cls-9" d="M347.72,233.25H336.41v11.37h11.32Z" transform="translate(-6.68 -5.4)"/><path class="cls-8" d="M390.42,206.23h-42.7v38.39h2.91v14.06h39.78Z" transform="translate(-6.68 -5.4)"/><path class="cls-4" d="M390.42,206.23h-42.7v38.39h2.91v14.06h39.78Z" transform="translate(-6.68 -5.4)"/><path class="cls-9" d="M247.57,206.23h44.16v38.39H247.57Z" transform="translate(-6.68 -5.4)"/><path class="cls-9" d="M230,228.17h17.6V206.23H230Z" transform="translate(-6.68 -5.4)"/><path class="cls-9" d="M247.57,244.62H230V228.17h17.6Z" transform="translate(-6.68 -5.4)"/><path class="cls-9" d="M213.88,229.81H230v14.81H213.88Z" transform="translate(-6.68 -5.4)"/><path class="cls-9" d="M230,215.11H213.88v14.71H230Z" transform="translate(-6.68 -5.4)"/><path class="cls-9" d="M206.75,222.48h7.14v-7.38h-7.14Z" transform="translate(-6.68 -5.4)"/><path class="cls-9" d="M190.95,229.81h15.8V215.11h-15.8Z" transform="translate(-6.68 -5.4)"/><path class="cls-9" d="M206.75,244.62h-15.8V229.81h15.8Z" transform="translate(-6.68 -5.4)"/><path class="cls-9" d="M162.18,215.11h28.76v29.51H162.18Z" transform="translate(-6.68 -5.4)"/><path class="cls-9" d="M162.18,215.11H147.59v29.51h14.59Z" transform="translate(-6.68 -5.4)"/><path class="cls-9" d="M147.6,215.11H112.25v29.51H147.6Z" transform="translate(-6.68 -5.4)"/><path class="cls-9" d="M98.33,230.78h13.92V215.1H98.33Z" transform="translate(-6.68 -5.4)"/><path class="cls-9" d="M112.24,244.62H98.32V230.78h13.92Z" transform="translate(-6.68 -5.4)"/><path class="cls-9" d="M76,234.15H89.45v10.47H76Z" transform="translate(-6.68 -5.4)"/><path class="cls-9" d="M89.45,215.11H76v19H89.45Z" transform="translate(-6.68 -5.4)"/><path class="cls-9" d="M41.27,229.14H76v-14H41.27Z" transform="translate(-6.68 -5.4)"/><path class="cls-9" d="M76,244.62H41.27V229.14H76Z" transform="translate(-6.68 -5.4)"/><path class="cls-9" d="M53.1,260.1H73.44v23.48H53.1Z" transform="translate(-6.68 -5.4)"/><path class="cls-8" d="M107.63,308v3.59H73.44V260.1h42V308Z" transform="translate(-6.68 -5.4)"/><path class="cls-4" d="M107.63,308v3.59H73.44V260.1h42V308Z" transform="translate(-6.68 -5.4)"/><path class="cls-8" d="M141.25,260.1H115.42v51.53h18V308h7.86Z" transform="translate(-6.68 -5.4)"/><path class="cls-4" d="M141.25,260.1H115.42v51.53h18V308h7.86Z" transform="translate(-6.68 -5.4)"/><path class="cls-9" d="M167.14,285.75h-25.9v25.88h25.9Z" transform="translate(-6.68 -5.4)"/><path class="cls-9" d="M141.25,273h25.9v12.79h-25.9Z" transform="translate(-6.68 -5.4)"/><path class="cls-9" d="M167.14,260.1h-25.9V273h25.9Z" transform="translate(-6.68 -5.4)"/><path class="cls-8" d="M174.93,308v3.59h34.48V260.1H167.14V308Z" transform="translate(-6.68 -5.4)"/><path class="cls-4" d="M174.93,308v3.59h34.48V260.1H167.14V308Z" transform="translate(-6.68 -5.4)"/><path class="cls-9" d="M223.81,260.1h-14.4v51.53h14.4Z" transform="translate(-6.68 -5.4)"/><path class="cls-8" d="M223.81,311.62h28.44V308h11.1V260.1H223.81Z" transform="translate(-6.68 -5.4)"/><path class="cls-4" d="M223.81,311.62h28.44V308h11.1V260.1H223.81Z" transform="translate(-6.68 -5.4)"/><path class="cls-8" d="M274.21,308v3.59h30V292.48h1.91V260.1H263.36V308Z" transform="translate(-6.68 -5.4)"/><path class="cls-4" d="M274.21,308v3.59h30V292.48h1.91V260.1H263.36V308Z" transform="translate(-6.68 -5.4)"/><path class="cls-8" d="M102.87,260.1H281.7V244.62H213.89V222.48h-7.14v22.14H102.88Z" transform="translate(-6.68 -5.4)"/><path class="cls-4" d="M102.87,260.1H281.7V244.62H213.89V222.48h-7.14v22.14H102.88Z" transform="translate(-6.68 -5.4)"/><path class="cls-9" d="M144.29,164.07h8.15v7.27h-8.15Z" transform="translate(-6.68 -5.4)"/><path class="cls-10" d="M307.49,14.1V22" transform="translate(-6.68 -5.4)"/><path class="cls-10" d="M295.55,14.1V22" transform="translate(-6.68 -5.4)"/><path class="cls-10" d="M306.69,25.32v4" transform="translate(-6.68 -5.4)"/><path class="cls-10" d="M310.07,32.77v4" transform="translate(-6.68 -5.4)"/><path class="cls-10" d="M295.55,29.7v4" transform="translate(-6.68 -5.4)"/><path class="cls-10" d="M280.06,35.69v4" transform="translate(-6.68 -5.4)"/><path class="cls-10" d="M295.55,60.89v4" transform="translate(-6.68 -5.4)"/><path class="cls-10" d="M310.07,57.38v4" transform="translate(-6.68 -5.4)"/><path class="cls-10" d="M310.07,65.35v4" transform="translate(-6.68 -5.4)"/><path class="cls-10" d="M310.07,90.6v4" transform="translate(-6.68 -5.4)"/><path class="cls-10" d="M310.07,97.92v4" transform="translate(-6.68 -5.4)"/><path class="cls-10" d="M310.07,122.82v4" transform="translate(-6.68 -5.4)"/><path class="cls-10" d="M310.07,130.37v4" transform="translate(-6.68 -5.4)"/><path class="cls-10" d="M310.07,156.49v4" transform="translate(-6.68 -5.4)"/><path class="cls-10" d="M337.9,185h-4.38" transform="translate(-6.68 -5.4)"/><path class="cls-10" d="M315.15,185h-4.25" transform="translate(-6.68 -5.4)"/><path class="cls-10" d="M302,191.12H297.7" transform="translate(-6.68 -5.4)"/><path class="cls-10" d="M316,233.25H311.8" transform="translate(-6.68 -5.4)"/><path class="cls-10" d="M289.68,244.62h-3.86" transform="translate(-6.68 -5.4)"/><path class="cls-10" d="M272.35,260.1h-3.86" transform="translate(-6.68 -5.4)"/><path class="cls-10" d="M273,308h-3.86" transform="translate(-6.68 -5.4)"/><path class="cls-10" d="M255.05,308h-1.64" transform="translate(-6.68 -5.4)"/><path class="cls-10" d="M238.1,260.1h-3.8" transform="translate(-6.68 -5.4)"/><path class="cls-10" d="M243,244.62h-3.8" transform="translate(-6.68 -5.4)"/><path class="cls-10" d="M252.38,244.62h-3.8" transform="translate(-6.68 -5.4)"/><path class="cls-10" d="M217.39,260.1h-3.8" transform="translate(-6.68 -5.4)"/><path class="cls-10" d="M212.71,222.46h-3.8" transform="translate(-6.68 -5.4)"/><path class="cls-10" d="M201.67,260.1h-3.8" transform="translate(-6.68 -5.4)"/><path class="cls-10" d="M172.12,308h-3.8" transform="translate(-6.68 -5.4)"/><path class="cls-10" d="M181.66,244.62h-3.8" transform="translate(-6.68 -5.4)"/><path class="cls-10" d="M152.24,244.62h-3.8" transform="translate(-6.68 -5.4)"/><path class="cls-10" d="M133.67,244.62h-3.8" transform="translate(-6.68 -5.4)"/><path class="cls-10" d="M138.39,260.1h-3.8" transform="translate(-6.68 -5.4)"/><path class="cls-10" d="M138.39,308h-3.8" transform="translate(-6.68 -5.4)"/><path class="cls-10" d="M114,260.1h-3.8" transform="translate(-6.68 -5.4)"/><path class="cls-10" d="M62.6,260.1H58.8" transform="translate(-6.68 -5.4)"/><path class="cls-10" d="M84.61,244.62h-3.8" transform="translate(-6.68 -5.4)"/><path class="cls-10" d="M84.61,234.15h-3.8" transform="translate(-6.68 -5.4)"/><path class="cls-10" d="M144.29,117.46h-3.8" transform="translate(-6.68 -5.4)"/><path class="cls-10" d="M197.34,82.63h-3.8" transform="translate(-6.68 -5.4)"/><path class="cls-10" d="M236.15,71.37h-3.8" transform="translate(-6.68 -5.4)"/><path class="cls-10" d="M203.62,94.11h-3.8" transform="translate(-6.68 -5.4)"/><path class="cls-10" d="M210.42,94.11h-3.8" transform="translate(-6.68 -5.4)"/><path class="cls-10" d="M222.52,94.11h-3.8" transform="translate(-6.68 -5.4)"/><path class="cls-10" d="M189.81,125H186" transform="translate(-6.68 -5.4)"/><path class="cls-10" d="M210.52,125h-3.8" transform="translate(-6.68 -5.4)"/><path class="cls-10" d="M112.24,100.71h-3.8" transform="translate(-6.68 -5.4)"/><path class="cls-10" d="M91.57,100.71h-3.8" transform="translate(-6.68 -5.4)"/><path class="cls-10" d="M154.25,106h-3.8" transform="translate(-6.68 -5.4)"/><path class="cls-10" d="M160.31,106h-3.8" transform="translate(-6.68 -5.4)"/><path class="cls-10" d="M110.68,125h-3.8" transform="translate(-6.68 -5.4)"/><path class="cls-10" d="M149,125h-3.8" transform="translate(-6.68 -5.4)"/><path class="cls-10" d="M143.14,125h-3.8" transform="translate(-6.68 -5.4)"/><path class="cls-10" d="M151.36,164.07h-3.8" transform="translate(-6.68 -5.4)"/><path class="cls-10" d="M70.95,229.14h-3.8" transform="translate(-6.68 -5.4)"/><path class="cls-10" d="M114,308h-3.8" transform="translate(-6.68 -5.4)"/><path class="cls-10" d="M292.57,206.23H283.8" transform="translate(-6.68 -5.4)"/><path class="cls-10" d="M292.57,244.62H283.8" transform="translate(-6.68 -5.4)"/><path class="cls-10" d="M333.13,233.25h-4.38" transform="translate(-6.68 -5.4)"/><path class="cls-10" d="M276.8,174.93h-3.86" transform="translate(-6.68 -5.4)"/><path class="cls-10" d="M264,160.07h-3.86" transform="translate(-6.68 -5.4)"/><path class="cls-10" d="M257.86,160.07H254" transform="translate(-6.68 -5.4)"/><path class="cls-10" d="M241.27,160.07h-3.8" transform="translate(-6.68 -5.4)"/><path class="cls-10" d="M235.16,160.07h-3.8" transform="translate(-6.68 -5.4)"/><path class="cls-10" d="M216.5,160.07h-3.8" transform="translate(-6.68 -5.4)"/><path class="cls-10" d="M264,135.9h-3.86" transform="translate(-6.68 -5.4)"/><path class="cls-10" d="M257.86,135.9H254" transform="translate(-6.68 -5.4)"/><path class="cls-10" d="M241.27,135.9h-3.8" transform="translate(-6.68 -5.4)"/><path class="cls-10" d="M235.16,135.9h-3.8" transform="translate(-6.68 -5.4)"/><path class="cls-10" d="M216.5,135.9h-3.8" transform="translate(-6.68 -5.4)"/><path class="cls-10" d="M210.44,160.07h-3.8" transform="translate(-6.68 -5.4)"/><path class="cls-10" d="M306.69,164.76v4" transform="translate(-6.68 -5.4)"/><path class="cls-10" d="M302,201.52v3.94" transform="translate(-6.68 -5.4)"/><path class="cls-10" d="M281.84,201.52v3.94" transform="translate(-6.68 -5.4)"/><path class="cls-10" d="M309,239.62v3.94" transform="translate(-6.68 -5.4)"/><path class="cls-10" d="M247.57,221.72v3.94" transform="translate(-6.68 -5.4)"/><path class="cls-10" d="M209.41,270.66v3.94" transform="translate(-6.68 -5.4)"/><path class="cls-10" d="M141.25,263v3.94" transform="translate(-6.68 -5.4)"/><path class="cls-10" d="M76,220.33v3.94" transform="translate(-6.68 -5.4)"/><path class="cls-10" d="M61.37,142.71v4" transform="translate(-6.68 -5.4)"/><path class="cls-10" d="M105.52,169.63v4" transform="translate(-6.68 -5.4)"/><path class="cls-10" d="M99.17,125.6v4" transform="translate(-6.68 -5.4)"/><path class="cls-10" d="M116.72,101.85v4" transform="translate(-6.68 -5.4)"/><path class="cls-10" d="M192.65,89v4" transform="translate(-6.68 -5.4)"/><path class="cls-10" d="M227.28,82.32v4" transform="translate(-6.68 -5.4)"/><path class="cls-10" d="M240.35,98v8.81" transform="translate(-6.68 -5.4)"/><path class="cls-10" d="M84.74,125.6v4" transform="translate(-6.68 -5.4)"/><path class="cls-10" d="M102.87,248.11v8.34" transform="translate(-6.68 -5.4)"/><path class="cls-10" d="M41.27,248.39v8.34" transform="translate(-6.68 -5.4)"/><path class="cls-10" d="M66.94,205.21v8.34" transform="translate(-6.68 -5.4)"/><path class="cls-10" d="M67.67,133.67v6.47" transform="translate(-6.68 -5.4)"/><path class="cls-10" d="M84.74,113.69v6.47" transform="translate(-6.68 -5.4)"/><path class="cls-10" d="M84.74,103.85v5.62" transform="translate(-6.68 -5.4)"/><path class="cls-10" d="M102.87,205.21v8.34" transform="translate(-6.68 -5.4)"/><path class="cls-10" d="M56.74,244.62h-8" transform="translate(-6.68 -5.4)"/><path class="cls-10" d="M77.53,174.93h-8" transform="translate(-6.68 -5.4)"/><path class="cls-10" d="M76.78,132.62H70.25" transform="translate(-6.68 -5.4)"/><path class="cls-10" d="M70,329.77H62.33" transform="translate(-6.68 -5.4)"/><path class="cls-10" d="M97.61,215.11H90.22" transform="translate(-6.68 -5.4)"/><path class="cls-10" d="M98.33,234.9v8.34" transform="translate(-6.68 -5.4)"/><path class="cls-10" d="M141.25,277.87v3.94" transform="translate(-6.68 -5.4)"/><path class="cls-10" d="M167.14,302.62v3.94" transform="translate(-6.68 -5.4)"/><path class="cls-10" d="M213.88,239.48v3.94" transform="translate(-6.68 -5.4)"/><path class="cls-10" d="M206.75,239.48v3.94" transform="translate(-6.68 -5.4)"/><path class="cls-10" d="M213.88,224.82v3.94" transform="translate(-6.68 -5.4)"/><path class="cls-10" d="M206.75,224.82v3.94" transform="translate(-6.68 -5.4)"/><path class="cls-10" d="M209.41,279.85v3.94" transform="translate(-6.68 -5.4)"/><path class="cls-10" d="M281.61,248.15v8.06" transform="translate(-6.68 -5.4)"/><path class="cls-10" d="M336.41,234.09V238" transform="translate(-6.68 -5.4)"/><path class="cls-10" d="M390.42,249.44v3.94" transform="translate(-6.68 -5.4)"/><path class="cls-10" d="M350.63,248.15v8.06" transform="translate(-6.68 -5.4)"/><path class="cls-10" d="M278.39,162.13v4" transform="translate(-6.68 -5.4)"/><path class="cls-10" d="M278.39,155.7v4" transform="translate(-6.68 -5.4)"/><path class="cls-10" d="M205.35,148.94v4" transform="translate(-6.68 -5.4)"/><path class="cls-10" d="M205.35,142.91v4" transform="translate(-6.68 -5.4)"/><path class="cls-10" d="M205.35,130.86v4" transform="translate(-6.68 -5.4)"/><path class="cls-10" d="M354.21,190v4" transform="translate(-6.68 -5.4)"/><path class="cls-10" d="M354.21,199.55v3.94" transform="translate(-6.68 -5.4)"/><path class="cls-10" d="M306.69,172.91v8.55" transform="translate(-6.68 -5.4)"/><path class="cls-10" d="M354.21,172.91v8.55" transform="translate(-6.68 -5.4)"/><path class="cls-10" d="M294.43,139.59v4" transform="translate(-6.68 -5.4)"/><path class="cls-10" d="M291.25,100.5v7.73" transform="translate(-6.68 -5.4)"/><path class="cls-10" d="M291.25,76v4" transform="translate(-6.68 -5.4)"/><path class="cls-10" d="M285.77,34.79h-3.86" transform="translate(-6.68 -5.4)"/><path class="cls-10" d="M275.12,87.14h-3.86" transform="translate(-6.68 -5.4)"/><path class="cls-10" d="M349,30.19h-4.38" transform="translate(-6.68 -5.4)"/><path class="cls-10" d="M353.63,63.42h-4.38" transform="translate(-6.68 -5.4)"/><path class="cls-10" d="M353.63,128.53h-4.38" transform="translate(-6.68 -5.4)"/><path class="cls-10" d="M292.38,121.15h-4.25" transform="translate(-6.68 -5.4)"/><path class="cls-10" d="M277,125h-3.86" transform="translate(-6.68 -5.4)"/><path class="cls-10" d="M348.1,301.38l-7,5.69" transform="translate(-6.68 -5.4)"/><path class="cls-10" d="M329.92,295.94l7-5.69" transform="translate(-6.68 -5.4)"/><path class="cls-10" d="M21.71,118.16,26,128" transform="translate(-6.68 -5.4)"/><path class="cls-10" d="M10,118.05l7.19-4.3" transform="translate(-6.68 -5.4)"/><path class="cls-10" d="M13.45,134,9.62,125" transform="translate(-6.68 -5.4)"/><g class="cls-11"><text class="cls-12" transform="translate(37.19 152.31) scale(0.94 1)">1</text><text class="cls-12" transform="translate(39.43 152.31) scale(0.94 1)">2</text><text class="cls-12" transform="translate(41.68 152.31) scale(0.94 1)">0</text><text class="cls-12" transform="translate(43.93 152.31) scale(0.94 1)">4</text></g><g class="cls-11"><text class="cls-13" transform="translate(55.65 124.96) scale(0.94 1)">1</text><text class="cls-13" transform="translate(57.26 124.96) scale(0.94 1)">2</text><text class="cls-13" transform="translate(58.86 124.96) scale(0.94 1)">0</text><text class="cls-13" transform="translate(60.47 124.96) scale(0.94 1)">3</text></g><g class="cls-11"><text class="cls-12" transform="translate(125.48 79.22) scale(0.94 1)">1</text><text class="cls-12" transform="translate(127.72 79.22) scale(0.94 1)">2</text><text class="cls-12" transform="translate(129.97 79.22) scale(0.94 1)">1</text><text class="cls-12" transform="translate(131.92 79.22) scale(0.94 1)">1</text><text class="cls-12" transform="translate(163.56 79.22) scale(0.94 1)">1</text><text class="cls-12" transform="translate(165.81 79.22) scale(0.94 1)">2</text><text class="cls-12" transform="translate(168.06 79.22) scale(0.94 1)">1</text><text class="cls-12" transform="translate(170.3 79.22) scale(0.94 1)">2</text><text class="cls-12" transform="translate(200.78 53.36) scale(0.94 1)">1</text><text class="cls-12" transform="translate(203.03 53.36) scale(0.94 1)">2</text><text class="cls-12" transform="translate(205.28 53.36) scale(0.94 1)">1</text><text class="cls-12" transform="translate(207.52 53.36) scale(0.94 1)">7</text><text class="cls-12" transform="translate(247.63 49.36) scale(0.95 1)">1</text><text class="cls-12" transform="translate(249.91 49.36) scale(0.95 1)">2</text><text class="cls-12" transform="translate(252.2 49.36) scale(0.95 1)">1</text><text class="cls-12" transform="translate(254.48 49.36) scale(0.95 1)">8</text><text class="cls-12" transform="translate(264.38 24.16) scale(0.95 1)">1</text><text class="cls-12" transform="translate(266.67 24.16) scale(0.95 1)">2</text><text class="cls-12" transform="translate(268.95 24.16) scale(0.95 1)">1</text><text class="cls-12" transform="translate(271.23 24.16) scale(0.95 1)">8</text><text class="cls-12" transform="translate(273.51 24.16) scale(0.95 1)">B</text><text class="cls-12" transform="translate(276.29 24.78) scale(1.05 1)">1</text><text class="cls-12" transform="translate(278.8 24.78) scale(1.05 1)">2</text><text class="cls-12" transform="translate(281.32 24.78) scale(1.05 1)">4</text><text class="cls-12" transform="translate(283.83 24.78) scale(1.05 1)">0</text></g><g class="cls-11"><text class="cls-13" transform="translate(307.59 22.01) scale(1.05 1)">1</text><text class="cls-13" transform="translate(309.38 22.01) scale(1.05 1)">2</text><text class="cls-13" transform="translate(321.27 22.01) scale(1.08 1)">4</text><text class="cls-13" transform="translate(323.12 22.01) scale(1.08 1)">1</text><text class="cls-13" transform="translate(335.55 22.32) scale(1.08 1)">1</text><text class="cls-13" transform="translate(337.4 22.32) scale(1.08 1)">2</text><text class="cls-13" transform="translate(339.25 22.32) scale(1.08 1)">4</text><text class="cls-13" transform="translate(341.1 22.32) scale(1.08 1)">2</text><text class="cls-13" transform="translate(342.95 22.32) scale(1.08 1)">B</text></g><g class="cls-11"><text class="cls-12" transform="translate(342.21 42.6) scale(1.08 1)">1</text><text class="cls-12" transform="translate(344.8 42.6) scale(1.08 1)">2</text><text class="cls-12" transform="translate(347.39 42.6) scale(1.08 1)">4</text><text class="cls-12" transform="translate(349.98 42.6) scale(1.08 1)">2</text><text class="cls-12" transform="translate(342.87 74.87) scale(1.08 1)">1</text><text class="cls-12" transform="translate(345.47 74.87) scale(1.08 1)">2</text><text class="cls-12" transform="translate(348.06 74.87) scale(1.08 1)">4</text><text class="cls-12" transform="translate(350.64 74.87) scale(1.08 1)">3</text><text class="cls-12" transform="translate(342.54 108.68) scale(1.08 1)">1</text><text class="cls-12" transform="translate(345.13 108.68) scale(1.08 1)">2</text><text class="cls-12" transform="translate(347.72 108.68) scale(1.08 1)">4</text><text class="cls-12" transform="translate(350.31 108.68) scale(1.08 1)">4</text><text class="cls-12" transform="translate(343.54 141.56) scale(1.08 1)">1</text><text class="cls-12" transform="translate(346.13 141.56) scale(1.08 1)">2</text><text class="cls-12" transform="translate(348.72 141.56) scale(1.08 1)">4</text><text class="cls-12" transform="translate(351.31 141.56) scale(1.08 1)">5</text><text class="cls-12" transform="translate(187.8 98.84) scale(0.94 1)">1</text><text class="cls-12" transform="translate(190.05 98.84) scale(0.94 1)">2</text><text class="cls-12" transform="translate(192.29 98.84) scale(0.94 1)">1</text><text class="cls-12" transform="translate(194.54 98.84) scale(0.94 1)">6</text><text class="cls-12" transform="translate(246.47 86.24) scale(0.94 1)">1</text><text class="cls-12" transform="translate(248.72 86.24) scale(0.94 1)">2</text><text class="cls-12" transform="translate(248.81 86.24) scale(0.95 1)">1</text><text class="cls-12" transform="translate(251.1 86.24) scale(0.95 1)">9</text><text class="cls-12" transform="translate(276.29 62.88) scale(1.05 1)">1</text><text class="cls-12" transform="translate(278.8 62.88) scale(1.05 1)">2</text><text class="cls-12" transform="translate(281.32 62.88) scale(1.05 1)">3</text><text class="cls-12" transform="translate(283.83 62.88) scale(1.05 1)">9</text><text class="cls-12" transform="translate(273.47 76.4) scale(0.95 1)">1</text><text class="cls-12" transform="translate(275.76 76.4) scale(0.95 1)">2</text><text class="cls-12" transform="translate(278.04 76.4) scale(0.95 1)">3</text><text class="cls-12" transform="translate(269.95 76.4) scale(1.05 1)">8</text><text class="cls-12" transform="translate(272.46 76.4) scale(1.05 1)">B</text><text class="cls-12" transform="translate(274.94 94.53) scale(0.95 1)">1</text><text class="cls-12" transform="translate(277.22 94.53) scale(0.95 1)">2</text><text class="cls-12" transform="translate(279.5 94.53) scale(0.95 1)">3</text><text class="cls-12" transform="translate(271.57 94.53) scale(1.05 1)">8</text></g><g class="cls-11"><text class="cls-13" transform="translate(189.24 123.73) scale(0.94 1)">1</text><text class="cls-13" transform="translate(190.85 123.73) scale(0.94 1)">2</text><text class="cls-13" transform="translate(192.45 123.73) scale(0.94 1)">3</text><text class="cls-13" transform="translate(194.05 123.73) scale(0.94 1)">1</text><text class="cls-13" transform="translate(189.24 137.1) scale(0.94 1)">1</text><text class="cls-13" transform="translate(190.85 137.1) scale(0.94 1)">2</text><text class="cls-13" transform="translate(192.45 137.1) scale(0.94 1)">3</text><text class="cls-13" transform="translate(194.05 137.1) scale(0.94 1)">0</text><text class="cls-13" transform="translate(189.24 149.55) scale(0.94 1)">1</text><text class="cls-13" transform="translate(190.85 149.55) scale(0.94 1)">2</text><text class="cls-13" transform="translate(192.45 149.55) scale(0.94 1)">2</text><text class="cls-13" transform="translate(194.05 149.55) scale(0.94 1)">9</text><text class="cls-13" transform="translate(191.55 163.38) scale(0.94 1)">1</text><text class="cls-13" transform="translate(193.16 163.38) scale(0.94 1)">2</text><text class="cls-13" transform="translate(194.76 163.38) scale(0.94 1)">2</text><text class="cls-13" transform="translate(196.36 163.38) scale(0.94 1)">8</text><text class="cls-13" transform="translate(207.71 163.38) scale(0.94 1)">1</text><text class="cls-13" transform="translate(209.31 163.38) scale(0.94 1)">2</text><text class="cls-13" transform="translate(210.92 163.38) scale(0.94 1)">2</text><text class="cls-13" transform="translate(212.52 163.38) scale(0.94 1)">7</text><text class="cls-13" transform="translate(220.4 163.38) scale(0.94 1)">1</text><text class="cls-13" transform="translate(222.01 163.38) scale(0.94 1)">2</text><text class="cls-13" transform="translate(223.61 163.38) scale(0.94 1)">2</text><text class="cls-13" transform="translate(225.22 163.38) scale(0.94 1)">6</text><text class="cls-13" transform="translate(232.81 163.38) scale(0.94 1)">1</text><text class="cls-13" transform="translate(234.41 163.38) scale(0.94 1)">2</text><text class="cls-13" transform="translate(236.02 163.38) scale(0.94 1)">2</text><text class="cls-13" transform="translate(237.62 163.38) scale(0.94 1)">5</text><text class="cls-13" transform="translate(244.64 163.48) scale(0.94 1)">1</text><text class="cls-13" transform="translate(246.24 163.48) scale(0.94 1)">2</text><text class="cls-13" transform="translate(247.85 163.48) scale(0.94 1)">2</text><text class="cls-13" transform="translate(247.28 163.48) scale(0.95 1)">4</text><text class="cls-13" transform="translate(255.58 163.48) scale(0.95 1)">1</text><text class="cls-13" transform="translate(257.21 163.48) scale(0.95 1)">2</text><text class="cls-13" transform="translate(258.84 163.48) scale(0.95 1)">2</text><text class="cls-13" transform="translate(260.47 163.48) scale(0.95 1)">3</text><text class="cls-13" transform="translate(227.62 140.33) scale(0.94 1)">1</text><text class="cls-13" transform="translate(229.22 140.33) scale(0.94 1)">2</text><text class="cls-13" transform="translate(230.82 140.33) scale(0.94 1)">2</text><text class="cls-13" transform="translate(232.43 140.33) scale(0.94 1)">0</text><text class="cls-13" transform="translate(207.71 123.73) scale(0.94 1)">1</text><text class="cls-13" transform="translate(209.31 123.73) scale(0.94 1)">2</text><text class="cls-13" transform="translate(210.92 123.73) scale(0.94 1)">3</text><text class="cls-13" transform="translate(212.52 123.73) scale(0.94 1)">2</text><text class="cls-13" transform="translate(220.4 123.73) scale(0.94 1)">1</text><text class="cls-13" transform="translate(222.01 123.73) scale(0.94 1)">2</text><text class="cls-13" transform="translate(223.61 123.73) scale(0.94 1)">3</text><text class="cls-13" transform="translate(225.22 123.73) scale(0.94 1)">3</text><text class="cls-13" transform="translate(232.81 123.73) scale(0.94 1)">1</text><text class="cls-13" transform="translate(234.41 123.73) scale(0.94 1)">2</text><text class="cls-13" transform="translate(236.02 123.73) scale(0.94 1)">3</text><text class="cls-13" transform="translate(237.62 123.73) scale(0.94 1)">4</text><text class="cls-13" transform="translate(244.64 123.73) scale(0.94 1)">1</text><text class="cls-13" transform="translate(246.24 123.73) scale(0.94 1)">2</text><text class="cls-13" transform="translate(247.85 123.73) scale(0.94 1)">3</text><text class="cls-13" transform="translate(247.28 123.73) scale(0.95 1)">5</text><text class="cls-13" transform="translate(255.58 123.73) scale(0.95 1)">1</text><text class="cls-13" transform="translate(257.21 123.73) scale(0.95 1)">2</text><text class="cls-13" transform="translate(258.84 123.73) scale(0.95 1)">3</text><text class="cls-13" transform="translate(260.47 123.73) scale(0.95 1)">6</text><text class="cls-13" transform="translate(275.23 123.73) scale(0.95 1)">1</text><text class="cls-13" transform="translate(276.86 123.73) scale(0.95 1)">2</text><text class="cls-13" transform="translate(278.49 123.73) scale(0.95 1)">3</text><text class="cls-13" transform="translate(280.12 123.73) scale(0.95 1)">7</text><text class="cls-13" transform="translate(278.06 134.18) scale(1.05 1)">1</text><text class="cls-13" transform="translate(279.86 134.18) scale(1.05 1)">2</text><text class="cls-13" transform="translate(281.65 134.18) scale(1.05 1)">4</text><text class="cls-13" transform="translate(283.45 134.18) scale(1.05 1)">6</text><text class="cls-13" transform="translate(275.23 149.55) scale(0.95 1)">1</text><text class="cls-13" transform="translate(276.86 149.55) scale(0.95 1)">2</text><text class="cls-13" transform="translate(278.49 149.55) scale(0.95 1)">2</text><text class="cls-13" transform="translate(280.12 149.55) scale(0.95 1)">1</text><text class="cls-13" transform="translate(275.23 163.48) scale(0.95 1)">1</text><text class="cls-13" transform="translate(276.86 163.48) scale(0.95 1)">2</text><text class="cls-13" transform="translate(278.49 163.48) scale(0.95 1)">2</text><text class="cls-13" transform="translate(280.12 163.48) scale(0.95 1)">2</text><text class="cls-13" transform="translate(290.16 190.11) scale(1.05 1)">1</text><text class="cls-13" transform="translate(291.95 190.11) scale(1.05 1)">2</text><text class="cls-13" transform="translate(293.75 190.11) scale(1.05 1)">4</text><text class="cls-13" transform="translate(295.54 190.11) scale(1.05 1)">9</text><text class="cls-13" transform="translate(325.23 162.15) scale(1.08 1)">1</text><text class="cls-13" transform="translate(327.08 162.15) scale(1.08 1)">2</text><text class="cls-13" transform="translate(328.93 162.15) scale(1.08 1)">4</text><text class="cls-13" transform="translate(330.78 162.15) scale(1.08 1)">7</text><text class="cls-13" transform="translate(324.89 173.21) scale(1.08 1)">1</text><text class="cls-13" transform="translate(326.74 173.21) scale(1.08 1)">2</text><text class="cls-13" transform="translate(328.6 173.21) scale(1.08 1)">4</text><text class="cls-13" transform="translate(330.44 173.21) scale(1.08 1)">8</text><text class="cls-13" transform="translate(301.45 187.35) scale(1.05 1)">1</text><text class="cls-13" transform="translate(303.25 187.35) scale(1.05 1)">2</text><text class="cls-13" transform="translate(305.04 187.35) scale(1.05 1)">4</text><text class="cls-13" transform="translate(306.84 187.35) scale(1.05 1)">8</text><text class="cls-13" transform="translate(308.63 187.35) scale(1.05 1)">C</text><text class="cls-13" transform="translate(325.56 187.66) scale(1.08 1)">1</text><text class="cls-13" transform="translate(327.41 187.66) scale(1.08 1)">2</text><text class="cls-13" transform="translate(329.26 187.66) scale(1.08 1)">4</text><text class="cls-13" transform="translate(331.11 187.66) scale(1.08 1)">8</text><text class="cls-13" transform="translate(332.96 187.66) scale(1.08 1)">B</text><text class="cls-13" transform="translate(338.88 187.96) scale(1.08 1)">1</text><text class="cls-13" transform="translate(340.73 187.96) scale(1.08 1)">2</text><text class="cls-13" transform="translate(342.58 187.96) scale(1.08 1)">5</text><text class="cls-13" transform="translate(344.43 187.96) scale(1.08 1)">0</text><text class="cls-14" transform="translate(331.22 195.24) scale(1.11 1)">1</text><text class="cls-14" transform="translate(333.07 195.24) scale(1.11 1)">2</text><text class="cls-14" transform="translate(334.92 195.24) scale(1.11 1)">5</text><text class="cls-14" transform="translate(336.77 195.24) scale(1.11 1)">1</text></g><g class="cls-11"><text class="cls-12" transform="translate(158.37 143.1) scale(0.94 1)">1</text><text class="cls-12" transform="translate(160.62 143.1) scale(0.94 1)">2</text><text class="cls-12" transform="translate(162.86 143.1) scale(0.94 1)">1</text><text class="cls-12" transform="translate(165.11 143.1) scale(0.94 1)">0</text><text class="cls-12" transform="translate(113.36 143.1) scale(0.94 1)">1</text><text class="cls-12" transform="translate(115.6 143.1) scale(0.94 1)">2</text><text class="cls-12" transform="translate(117.85 143.1) scale(0.94 1)">0</text><text class="cls-12" transform="translate(120.09 143.1) scale(0.94 1)">9</text></g><g class="cls-15"><path class="cls-7" d="M292.32,155.11a1.09,1.09,0,0,1-1.12,1.07h-6.8a1.09,1.09,0,0,1-1.12-1.07v-6.47a1.09,1.09,0,0,1,1.12-1.07h6.8a1.09,1.09,0,0,1,1.12,1.07Z" transform="translate(-6.68 -5.4)"/><path class="cls-16" d="M286.19,154.34v-3.07" transform="translate(-6.68 -5.4)"/><path class="cls-8" d="M287.32,151.27l-1.13-1.86-1.13,1.86Z" transform="translate(-6.68 -5.4)"/><path class="cls-16" d="M289.42,149.42v3.07" transform="translate(-6.68 -5.4)"/><path class="cls-8" d="M288.3,152.5l1.13,1.86,1.13-1.86Z" transform="translate(-6.68 -5.4)"/></g><g class="cls-17"><path class="cls-7" d="M310.66,220.75a1.08,1.08,0,0,1-1.12,1h-6.8a1.08,1.08,0,0,1-1.12-1v-6.3a1.08,1.08,0,0,1,1.12-1h6.8a1.08,1.08,0,0,1,1.12,1Z" transform="translate(-6.68 -5.4)"/><path class="cls-8" d="M306.14,214.13a.57.57,0,1,1-.61.56.59.59,0,0,1,.61-.56" transform="translate(-6.68 -5.4)"/><path class="cls-8" d="M305.5,215.42a.76.76,0,0,0-.77.75v1.74a.26.26,0,0,0,.52,0v-1.6h.13v4.42a.35.35,0,0,0,.69,0v-2.57h.11v2.57a.36.36,0,0,0,.71,0V216.3H307v1.6a.26.26,0,0,0,.52,0v-1.74a.78.78,0,0,0-.79-.75Z" transform="translate(-6.68 -5.4)"/></g><g class="cls-11"><text class="cls-12" transform="translate(79.89 164.91) scale(0.94 1)">1</text><text class="cls-12" transform="translate(82.13 164.91) scale(0.94 1)">2</text><text class="cls-12" transform="translate(84.38 164.91) scale(0.94 1)">0</text><text class="cls-12" transform="translate(86.63 164.91) scale(0.94 1)">9</text><text class="cls-12" transform="translate(88.87 164.91) scale(0.94 1)">B</text></g><g class="cls-18"><path class="cls-7" d="M89.67,149a1,1,0,0,1-1,1.07H82.59a1,1,0,0,1-1-1.07V142.5a1,1,0,0,1,1-1.07h6.08a1,1,0,0,1,1,1.07Z" transform="translate(-6.68 -5.4)"/><path class="cls-8" d="M85.63,142.18a.58.58,0,1,1-.54.58.56.56,0,0,1,.54-.58" transform="translate(-6.68 -5.4)"/><path class="cls-8" d="M85.05,143.5a.73.73,0,0,0-.69.77v1.79a.24.24,0,1,0,.47,0v-1.64H85v4.54a.31.31,0,1,0,.62,0V146.3h.1v2.64a.32.32,0,1,0,.64,0v-4.54h.12v1.64a.24.24,0,1,0,.47,0v-1.79a.75.75,0,0,0-.7-.77Z" transform="translate(-6.68 -5.4)"/></g><g class="cls-19"><path class="cls-7" d="M94.89,142.51a1,1,0,0,1,1-1.08H102a1,1,0,0,1,1,1.08V149a1,1,0,0,1-1,1.08H95.9a1,1,0,0,1-1-1.08Z" transform="translate(-6.68 -5.4)"/><path class="cls-20" d="M98.93,142.08a.6.6,0,1,1-.56.6.58.58,0,0,1,.56-.6" transform="translate(-6.68 -5.4)"/><path class="cls-20" d="M98.85,147v2.07a.27.27,0,1,1-.53,0V147h-.69l.74-2.76h-.12l-.43,1.58c-.11.35-.55.21-.45-.17l.48-1.7a.77.77,0,0,1,.69-.55h.77a.8.8,0,0,1,.69.55l.48,1.7c.1.37-.34.52-.45.17l-.43-1.58h-.14l.76,2.76h-.7v2.07a.26.26,0,1,1-.52,0V147Z" transform="translate(-6.68 -5.4)"/></g><g class="cls-21"><path class="cls-7" d="M333.74,214.45a1.11,1.11,0,0,1,1.17-1h7a1.11,1.11,0,0,1,1.17,1v6.28a1.11,1.11,0,0,1-1.17,1h-7a1.11,1.11,0,0,1-1.17-1Z" transform="translate(-6.68 -5.4)"/><path class="cls-20" d="M338.4,214a.58.58,0,1,1-.64.58.61.61,0,0,1,.64-.58" transform="translate(-6.68 -5.4)"/><path class="cls-20" d="M338.31,218.86v2a.31.31,0,0,1-.61,0v-2h-.79l.85-2.69h-.14l-.5,1.53a.27.27,0,1,1-.52-.16l.56-1.66a.87.87,0,0,1,.79-.54h.89a.9.9,0,0,1,.79.54l.56,1.66a.27.27,0,1,1-.52.16l-.5-1.53H339l.87,2.69h-.81v2c0,.37-.6.37-.6,0v-2Z" transform="translate(-6.68 -5.4)"/></g><g class="cls-22"><path class="cls-7" d="M288.14,16.82a1,1,0,0,1-1,1.07h-6.18a1,1,0,0,1-1-1.07V10.35a1,1,0,0,1,1-1.07h6.18a1,1,0,0,1,1,1.07Z" transform="translate(-6.68 -5.4)"/><path class="cls-16" d="M281.1,15.74h2l0-1.84,1.78,0V12.05H287" transform="translate(-6.68 -5.4)"/></g><g class="cls-23"><path class="cls-7" d="M49.16,108.25a1,1,0,0,1-1,1.07H42.08a1,1,0,0,1-1-1.07v-6.47a1,1,0,0,1,1-1.07h6.08a1,1,0,0,1,1,1.07Z" transform="translate(-6.68 -5.4)"/><path class="cls-16" d="M42.23,107.17h2l0-1.84,1.75,0v-1.87H48" transform="translate(-6.68 -5.4)"/></g><g class="cls-11"><text class="cls-24" transform="translate(46.42 217.97) scale(0.96 1)">1</text><text class="cls-24" transform="translate(48.37 217.97) scale(0.96 1)">1</text><text class="cls-24" transform="translate(50.62 217.97) scale(0.96 1)">2</text><text class="cls-24" transform="translate(52.86 217.97) scale(0.96 1)">7</text><text class="cls-24" transform="translate(55.1 217.97) scale(0.96 1)">B</text><text class="cls-24" transform="translate(46.42 231.81) scale(0.96 1)">1</text><text class="cls-24" transform="translate(48.37 231.81) scale(0.96 1)">1</text><text class="cls-24" transform="translate(50.62 231.81) scale(0.96 1)">2</text><text class="cls-24" transform="translate(52.86 231.81) scale(0.96 1)">7</text><text class="cls-24" transform="translate(71.81 219.77) scale(0.96 1)">1</text><text class="cls-24" transform="translate(73.76 219.77) scale(0.96 1)">1</text><text class="cls-24" transform="translate(76.01 219.77) scale(0.96 1)">2</text><text class="cls-24" transform="translate(78.25 219.77) scale(0.96 1)">6</text><text class="cls-24" transform="translate(71.81 234.73) scale(0.96 1)">1</text><text class="cls-24" transform="translate(73.76 234.73) scale(0.96 1)">1</text><text class="cls-24" transform="translate(76.01 234.73) scale(0.96 1)">2</text><text class="cls-24" transform="translate(78.25 234.73) scale(0.96 1)">5</text><text class="cls-24" transform="translate(94.41 218.57) scale(0.96 1)">1</text><text class="cls-24" transform="translate(96.36 218.57) scale(0.96 1)">1</text><text class="cls-24" transform="translate(98.61 218.57) scale(0.96 1)">2</text><text class="cls-24" transform="translate(100.85 218.57) scale(0.96 1)">2</text><text class="cls-24" transform="translate(94.41 232.78) scale(0.96 1)">1</text><text class="cls-24" transform="translate(96.36 232.78) scale(0.96 1)">1</text><text class="cls-24" transform="translate(98.61 232.78) scale(0.96 1)">2</text><text class="cls-24" transform="translate(100.85 232.78) scale(0.96 1)">3</text><text class="cls-24" transform="translate(118.23 225.38) scale(0.96 1)">1</text><text class="cls-24" transform="translate(120.18 225.38) scale(0.96 1)">1</text><text class="cls-24" transform="translate(122.43 225.38) scale(0.96 1)">2</text><text class="cls-24" transform="translate(124.67 225.38) scale(0.96 1)">0</text><text class="cls-24" transform="translate(143.66 225.38) scale(0.96 1)">1</text><text class="cls-24" transform="translate(145.61 225.38) scale(0.96 1)">1</text><text class="cls-24" transform="translate(147.55 225.38) scale(0.96 1)">1</text><text class="cls-24" transform="translate(149.8 225.38) scale(0.96 1)">9</text><text class="cls-24" transform="translate(164.43 225.38) scale(0.96 1)">1</text><text class="cls-24" transform="translate(166.38 225.38) scale(0.96 1)">1</text><text class="cls-24" transform="translate(168.33 225.38) scale(0.96 1)">1</text><text class="cls-24" transform="translate(170.58 225.38) scale(0.96 1)">8</text><text class="cls-24" transform="translate(187.81 217.97) scale(0.96 1)">1</text><text class="cls-24" transform="translate(189.76 217.97) scale(0.96 1)">1</text><text class="cls-24" transform="translate(191.7 217.97) scale(0.96 1)">1</text><text class="cls-24" transform="translate(193.95 217.97) scale(0.96 1)">4</text><text class="cls-24" transform="translate(187.81 232.78) scale(0.96 1)">1</text><text class="cls-24" transform="translate(189.76 232.78) scale(0.96 1)">1</text><text class="cls-24" transform="translate(191.7 232.78) scale(0.96 1)">1</text><text class="cls-24" transform="translate(193.95 232.78) scale(0.96 1)">5</text><text class="cls-24" transform="translate(211.03 218.18) scale(0.96 1)">1</text><text class="cls-24" transform="translate(212.98 218.18) scale(0.96 1)">1</text><text class="cls-24" transform="translate(214.93 218.18) scale(0.96 1)">1</text><text class="cls-24" transform="translate(217.17 218.18) scale(0.96 1)">2</text><text class="cls-24" transform="translate(210.43 232.78) scale(0.96 1)">1</text><text class="cls-24" transform="translate(212.38 232.78) scale(0.96 1)">1</text><text class="cls-24" transform="translate(214.33 232.78) scale(0.96 1)">1</text><text class="cls-24" transform="translate(216.27 232.78) scale(0.96 1)">1</text><text class="cls-24" transform="translate(227.62 213.39) scale(0.96 1)">1</text><text class="cls-24" transform="translate(229.57 213.39) scale(0.96 1)">1</text><text class="cls-24" transform="translate(231.82 213.39) scale(0.96 1)">0</text><text class="cls-24" transform="translate(234.06 213.39) scale(0.96 1)">9</text><text class="cls-24" transform="translate(227.62 232.78) scale(0.96 1)">1</text><text class="cls-24" transform="translate(229.57 232.78) scale(0.96 1)">1</text><text class="cls-24" transform="translate(231.52 232.78) scale(0.96 1)">1</text><text class="cls-24" transform="translate(233.76 232.78) scale(0.96 1)">0</text><text class="cls-24" transform="translate(257.35 221.27) scale(0.98 1)">1</text><text class="cls-24" transform="translate(259.33 221.27) scale(0.98 1)">1</text><text class="cls-24" transform="translate(261.61 221.27) scale(0.98 1)">0</text><text class="cls-24" transform="translate(263.89 221.27) scale(0.98 1)">7</text><text class="cls-24" transform="translate(290.49 234.73) scale(1.08 1)">1</text><text class="cls-24" transform="translate(292.67 234.73) scale(1.08 1)">1</text><text class="cls-24" transform="translate(295.18 234.73) scale(1.08 1)">0</text><text class="cls-24" transform="translate(297.69 234.73) scale(1.08 1)">6</text><text class="cls-24" transform="translate(330.23 234.73) scale(1.11 1)">1</text><text class="cls-24" transform="translate(332.48 234.73) scale(1.11 1)">1</text><text class="cls-24" transform="translate(335.07 234.73) scale(1.11 1)">0</text><text class="cls-24" transform="translate(337.66 234.73) scale(1.11 1)">3</text><text class="cls-24" transform="translate(51.91 267.33) scale(0.96 1)">1</text><text class="cls-24" transform="translate(53.85 267.33) scale(0.96 1)">1</text><text class="cls-24" transform="translate(56.1 267.33) scale(0.96 1)">3</text><text class="cls-24" transform="translate(58.35 267.33) scale(0.96 1)">0</text><text class="cls-24" transform="translate(84.8 280.46) scale(0.96 1)">1</text><text class="cls-24" transform="translate(86.75 280.46) scale(0.96 1)">1</text><text class="cls-24" transform="translate(88.99 280.46) scale(0.96 1)">3</text><text class="cls-24" transform="translate(91.24 280.46) scale(0.96 1)">2</text><text class="cls-24" transform="translate(117.69 280.46) scale(0.96 1)">1</text><text class="cls-24" transform="translate(119.64 280.46) scale(0.96 1)">1</text><text class="cls-24" transform="translate(121.89 280.46) scale(0.96 1)">3</text><text class="cls-24" transform="translate(124.13 280.46) scale(0.96 1)">3</text><text class="cls-24" transform="translate(143.66 261.94) scale(0.96 1)">1</text><text class="cls-24" transform="translate(145.61 261.94) scale(0.96 1)">1</text><text class="cls-24" transform="translate(147.86 261.94) scale(0.96 1)">3</text><text class="cls-24" transform="translate(150.1 261.94) scale(0.96 1)">4</text><text class="cls-24" transform="translate(143.9 274.91) scale(0.96 1)">1</text><text class="cls-24" transform="translate(145.85 274.91) scale(0.96 1)">1</text><text class="cls-24" transform="translate(148.09 274.91) scale(0.96 1)">3</text><text class="cls-24" transform="translate(150.34 274.91) scale(0.96 1)">5</text><text class="cls-24" transform="translate(144.53 293.25) scale(0.96 1)">1</text><text class="cls-24" transform="translate(146.47 293.25) scale(0.96 1)">1</text><text class="cls-24" transform="translate(148.72 293.25) scale(0.96 1)">3</text><text class="cls-24" transform="translate(150.97 293.25) scale(0.96 1)">6</text><text class="cls-24" transform="translate(179.44 280.45) scale(0.96 1)">1</text><text class="cls-24" transform="translate(181.39 280.45) scale(0.96 1)">1</text><text class="cls-24" transform="translate(183.63 280.45) scale(0.96 1)">3</text><text class="cls-24" transform="translate(185.88 280.45) scale(0.96 1)">7</text><text class="cls-24" transform="translate(205.98 280.45) scale(0.96 1)">1</text><text class="cls-24" transform="translate(207.93 280.45) scale(0.96 1)">1</text><text class="cls-24" transform="translate(210.18 280.45) scale(0.96 1)">3</text><text class="cls-24" transform="translate(212.42 280.45) scale(0.96 1)">8</text><text class="cls-24" transform="translate(233.68 280.45) scale(0.96 1)">1</text><text class="cls-24" transform="translate(235.63 280.45) scale(0.96 1)">1</text><text class="cls-24" transform="translate(237.87 280.45) scale(0.96 1)">3</text><text class="cls-24" transform="translate(240.12 280.45) scale(0.96 1)">9</text><text class="cls-24" transform="translate(273.48 280.45) scale(0.98 1)">1</text><text class="cls-24" transform="translate(275.46 280.45) scale(0.98 1)">1</text><text class="cls-24" transform="translate(277.74 280.45) scale(0.98 1)">4</text><text class="cls-24" transform="translate(280.02 280.45) scale(0.98 1)">0</text><text class="cls-12" transform="translate(199.64 98.84) scale(0.94 1)">1</text><text class="cls-12" transform="translate(201.89 98.84) scale(0.94 1)">2</text><text class="cls-12" transform="translate(204.13 98.84) scale(0.94 1)">1</text><text class="cls-12" transform="translate(206.38 98.84) scale(0.94 1)">5</text><text class="cls-12" transform="translate(212.04 98.84) scale(0.94 1)">1</text><text class="cls-12" transform="translate(214.29 98.84) scale(0.94 1)">2</text><text class="cls-12" transform="translate(216.54 98.84) scale(0.94 1)">1</text><text class="cls-12" transform="translate(218.78 98.84) scale(0.94 1)">4</text><text class="cls-24" transform="translate(358.19 226.05) scale(1.11 1)">1</text><text class="cls-24" transform="translate(360.44 226.05) scale(1.11 1)">1</text><text class="cls-24" transform="translate(363.03 226.05) scale(1.11 1)">0</text><text class="cls-24" transform="translate(365.62 226.05) scale(1.11 1)">2</text></g><g class="cls-25"><path class="cls-7" d="M314.26,203.19a1.08,1.08,0,0,1-1.12,1h-6.8a1.08,1.08,0,0,1-1.12-1v-1.08a1.09,1.09,0,0,1,1.12-1.07h6.8a1.09,1.09,0,0,1,1.12,1.07Z" transform="translate(-6.68 -5.4)"/><path class="cls-8" d="M309.48,204.09a.74.74,0,0,1,.76-.72h1.87v-.86h-2a1.48,1.48,0,0,0-1.52,1.44v-4.37h.89Z" transform="translate(-6.68 -5.4)"/><path class="cls-8" d="M312.2,202.38a.42.42,0,0,1,.43-.41v1.93a.42.42,0,0,1-.43-.41Z" transform="translate(-6.68 -5.4)"/><path class="cls-8" d="M309.83,199.89a.22.22,0,0,0-.23-.21h-1.12a.22.22,0,0,0-.23.21v.17a1.86,1.86,0,0,0-1.28,1.49h4.16a1.86,1.86,0,0,0-1.29-1.49Z" transform="translate(-6.68 -5.4)"/><path class="cls-8" d="M311.07,201.78H307s-.14,0-.14-.08.14-.08.14-.08h4.06a.09.09,0,1,1,0,.16" transform="translate(-6.68 -5.4)"/><path class="cls-8" d="M311,202.35a.23.23,0,0,1-.46,0c0-.12.23-.34.23-.34s.23.22.23.34" transform="translate(-6.68 -5.4)"/><path class="cls-8" d="M310.12,202.35a.23.23,0,0,1-.46,0c0-.12.23-.34.23-.34s.23.22.23.34" transform="translate(-6.68 -5.4)"/><path class="cls-8" d="M309.22,202.35a.23.23,0,0,1-.46,0c0-.12.23-.34.23-.34s.23.22.23.34" transform="translate(-6.68 -5.4)"/><path class="cls-8" d="M308.31,202.35a.23.23,0,0,1-.46,0c0-.12.23-.34.23-.34s.23.22.23.34" transform="translate(-6.68 -5.4)"/><path class="cls-8" d="M307.4,202.35a.23.23,0,0,1-.46,0c0-.12.23-.34.23-.34s.23.22.23.34" transform="translate(-6.68 -5.4)"/><path class="cls-8" d="M307.85,203.12a.23.23,0,0,1-.46,0c0-.12.23-.34.23-.34s.23.22.23.34" transform="translate(-6.68 -5.4)"/><path class="cls-8" d="M308.77,203.12a.23.23,0,0,1-.46,0c0-.12.23-.34.23-.34s.23.22.23.34" transform="translate(-6.68 -5.4)"/><path class="cls-8" d="M309.66,203.09a.23.23,0,0,1-.46,0c0-.12.23-.34.23-.34s.23.22.23.34" transform="translate(-6.68 -5.4)"/><path class="cls-8" d="M310.58,203.09a.23.23,0,0,1-.46,0c0-.12.23-.34.23-.34s.23.22.23.34" transform="translate(-6.68 -5.4)"/><path class="cls-8" d="M311.21,201.7c0,.08-.14.08-.14.08" transform="translate(-6.68 -5.4)"/><path class="cls-8" d="M311.07,201.62s.14,0,.14.08" transform="translate(-6.68 -5.4)"/></g></svg>